G04 #@! TF.GenerationSoftware,KiCad,Pcbnew,(5.0.0-rc2-dev-493-gd776eaca8)*
G04 #@! TF.CreationDate,2018-07-04T02:07:02-03:00*
G04 #@! TF.ProjectId,climobike,636C696D6F62696B652E6B696361645F,rev?*
G04 #@! TF.SameCoordinates,PX6467e23PY9df22fc*
G04 #@! TF.FileFunction,Copper,L2,Bot,Signal*
G04 #@! TF.FilePolarity,Positive*
%FSLAX46Y46*%
G04 Gerber Fmt 4.6, Leading zero omitted, Abs format (unit mm)*
G04 Created by KiCad (PCBNEW (5.0.0-rc2-dev-493-gd776eaca8)) date Wed Jul  4 02:07:02 2018*
%MOMM*%
%LPD*%
G01*
G04 APERTURE LIST*
%ADD10C,1.524000*%
%ADD11C,1.600000*%
%ADD12O,1.600000X1.600000*%
%ADD13R,1.700000X1.700000*%
%ADD14O,1.700000X1.700000*%
%ADD15R,2.000000X2.000000*%
%ADD16C,2.000000*%
%ADD17R,1.400000X1.400000*%
%ADD18C,1.400000*%
%ADD19O,2.032000X1.727200*%
%ADD20R,2.032000X1.727200*%
%ADD21C,2.499360*%
%ADD22C,2.540000*%
%ADD23R,2.540000X2.540000*%
%ADD24C,1.000000*%
%ADD25C,1.000000*%
%ADD26C,0.254000*%
G04 APERTURE END LIST*
D10*
X35669999Y98070001D03*
X38209999Y98070001D03*
X43289999Y98070001D03*
X40749999Y98070001D03*
X45829999Y98070001D03*
X35669999Y121970001D03*
X38209999Y121970001D03*
X43289999Y121970001D03*
X40749999Y121970001D03*
X50909999Y121970001D03*
X48369999Y121970001D03*
X45829999Y121970001D03*
D11*
X19500000Y65500000D03*
D12*
X11880000Y65500000D03*
D13*
X36902488Y51597016D03*
D14*
X39442488Y51597016D03*
X41982488Y51597016D03*
X44522488Y51597016D03*
X47062488Y51597016D03*
X49602488Y51597016D03*
D10*
X7070000Y139810000D03*
X7070000Y137270000D03*
X7070000Y134730000D03*
X7070000Y132190000D03*
X9940000Y90570000D03*
X12480000Y90570000D03*
X15020000Y90570000D03*
X17560000Y90570000D03*
X41690000Y130320000D03*
X44230000Y130320000D03*
X46770000Y130320000D03*
X49310000Y130320000D03*
D15*
X32250000Y8500000D03*
D16*
X32250000Y3500000D03*
D10*
X39870000Y13890000D03*
X42410000Y13890000D03*
X44950000Y13890000D03*
X47490000Y13890000D03*
D17*
X5250000Y59750000D03*
D18*
X5250000Y57210000D03*
X5250000Y54670000D03*
X5250000Y52130000D03*
X5250000Y49590000D03*
X5250000Y47050000D03*
X5250000Y44510000D03*
X5250000Y41970000D03*
X5250000Y39430000D03*
X5250000Y36890000D03*
X5250000Y34350000D03*
X5250000Y31810000D03*
X5250000Y29270000D03*
X5250000Y26730000D03*
X5250000Y24190000D03*
X5250000Y21650000D03*
X5250000Y19110000D03*
X5250000Y16570000D03*
X5250000Y14030000D03*
X28110000Y14030000D03*
X28110000Y16570000D03*
X28110000Y19110000D03*
X28110000Y21650000D03*
X28110000Y24190000D03*
X28110000Y26730000D03*
X28110000Y29270000D03*
X28110000Y31810000D03*
X28110000Y34350000D03*
X28110000Y36890000D03*
X28110000Y39430000D03*
X28110000Y41970000D03*
X28110000Y44510000D03*
X28110000Y47050000D03*
X28110000Y49590000D03*
X28110000Y52130000D03*
X28110000Y54670000D03*
X28110000Y57210000D03*
X28110000Y59750000D03*
D11*
X8749999Y65500000D03*
X3669999Y65500000D03*
D19*
X3770000Y72530000D03*
X3770000Y75070000D03*
X3770000Y77610000D03*
D20*
X3770000Y80150000D03*
D21*
X11592102Y2907898D03*
X4407898Y10092102D03*
D22*
X46920000Y5500000D03*
D23*
X52000000Y5500000D03*
D24*
X39442488Y56192488D03*
X39500000Y67500000D03*
X3749999Y70000000D03*
X8500000Y70000000D03*
X44500000Y54500000D03*
X44500000Y62250000D03*
D25*
X5250000Y31810000D02*
X4260051Y31810000D01*
X4260051Y31810000D02*
X4200051Y31750000D01*
X4200051Y31750000D02*
X2750000Y31750000D01*
X6249999Y79686000D02*
X5785999Y80150000D01*
X6250000Y62450000D02*
X6249999Y79686000D01*
X5250000Y61450000D02*
X6250000Y62450000D01*
X5785999Y80150000D02*
X3770000Y80150000D01*
X5250000Y59750000D02*
X5250000Y61450000D01*
X34190000Y31810000D02*
X28110000Y31810000D01*
X42410000Y13890000D02*
X42410000Y23590001D01*
X42410000Y23590001D02*
X34190000Y31810000D01*
X35149999Y34350000D02*
X28110000Y34350001D01*
X44949999Y13890000D02*
X44949999Y24550000D01*
X44949999Y24550000D02*
X35149999Y34350000D01*
X49602488Y49347016D02*
X49602488Y51597015D01*
X28110000Y36890000D02*
X39597553Y36890000D01*
X49602487Y46894934D02*
X49602488Y49347016D01*
X39597553Y36890000D02*
X49602487Y46894934D01*
X47062487Y49347015D02*
X47062488Y51597015D01*
X30180000Y39430000D02*
X31329999Y40579999D01*
X47062487Y46894934D02*
X47062487Y49347015D01*
X31329999Y40579999D02*
X31329999Y41329999D01*
X28110000Y39430000D02*
X30180000Y39430000D01*
X31329999Y41329999D02*
X32420001Y42420001D01*
X32420001Y42420001D02*
X42587554Y42420001D01*
X42587554Y42420001D02*
X47062487Y46894934D01*
X29707246Y41970000D02*
X31757255Y44020011D01*
X28110000Y41970000D02*
X29707246Y41970000D01*
X31757255Y44020011D02*
X39020011Y44020011D01*
X41982488Y46982488D02*
X41982488Y49347015D01*
X39020011Y44020011D02*
X41982488Y46982488D01*
X41982488Y49347015D02*
X41982487Y51597015D01*
X6239949Y14030000D02*
X5250000Y14030000D01*
X8250000Y16040051D02*
X6239949Y14030000D01*
X8249999Y34000000D02*
X8250000Y16040051D01*
X39442488Y51597015D02*
X39442488Y56192488D01*
X19500000Y45250000D02*
X18750000Y44500000D01*
X19500000Y65500000D02*
X19500000Y45250000D01*
X18750000Y44500000D02*
X8249999Y34000000D01*
X32250000Y8500000D02*
X14000000Y8500000D01*
X8250000Y14250000D02*
X8250000Y16040051D01*
X14000000Y8500000D02*
X8250000Y14250000D01*
X19500000Y66631370D02*
X21868629Y69000000D01*
X19500000Y65500000D02*
X19500000Y66631370D01*
X38000000Y69000001D02*
X39500000Y67500000D01*
X21868629Y69000000D02*
X38000000Y69000001D01*
X43919999Y8500000D02*
X46919999Y5500000D01*
X32250000Y8500000D02*
X43919999Y8500000D01*
X36902487Y48976078D02*
X33676409Y45750000D01*
X36902488Y51597015D02*
X36902487Y48976078D01*
X33676409Y45750000D02*
X30750000Y45750000D01*
X29510000Y44510000D02*
X28109999Y44510000D01*
X30750000Y45750000D02*
X29510000Y44510000D01*
X3769999Y72530000D02*
X3769999Y70020000D01*
X3769999Y70020000D02*
X3749999Y70000000D01*
X44230000Y130320000D02*
X44229999Y128520000D01*
X9939999Y83376000D02*
X6249999Y79686000D01*
X9940000Y90570000D02*
X9939999Y83376000D01*
X2250000Y136750000D02*
X2250000Y98260000D01*
X2250000Y98260000D02*
X9940000Y90570000D01*
X7069999Y139810000D02*
X5310000Y139810000D01*
X5310000Y139810000D02*
X2250000Y136750000D01*
X34450000Y139810000D02*
X34000000Y139810000D01*
X34000000Y139810000D02*
X7069999Y139810000D01*
X38210000Y98070000D02*
X38971999Y98831999D01*
X38971999Y98831999D02*
X38971999Y99632384D01*
X41690000Y130320000D02*
X41690000Y139619999D01*
X50440000Y139810000D02*
X41499999Y139810000D01*
X41690000Y139619999D02*
X41499999Y139810000D01*
X41499999Y139810000D02*
X34000000Y139810000D01*
X38971999Y99632384D02*
X55589615Y116250000D01*
X55809535Y116030079D02*
X55589615Y116250000D01*
X55809536Y47559536D02*
X55809535Y116030079D01*
X48251999Y40001998D02*
X55809536Y47559536D01*
X47489999Y13890000D02*
X48251999Y14652000D01*
X48251999Y14652000D02*
X48251999Y40001998D01*
X55809535Y134440464D02*
X55250000Y135000000D01*
X55499999Y134750000D02*
X55250000Y135000000D01*
X55809535Y116030079D02*
X55809535Y134440464D01*
X55250000Y135000000D02*
X50440000Y139810000D01*
X10250000Y62750000D02*
X9250000Y61750000D01*
X10250000Y65500000D02*
X10250000Y62750000D01*
X10250000Y65500000D02*
X11880000Y65500000D01*
X8749999Y65500000D02*
X10250000Y65500000D01*
X9250000Y61750000D02*
X9250000Y56750000D01*
X7170000Y54670000D02*
X5249999Y54670000D01*
X9250000Y56750000D02*
X7170000Y54670000D01*
X17560000Y86190001D02*
X17560000Y90570000D01*
X17750000Y86000000D02*
X17560000Y86190001D01*
X14059999Y82310000D02*
X17750000Y86000000D01*
X14059999Y56560000D02*
X14059999Y82310000D01*
X5250000Y49590000D02*
X7089999Y49590000D01*
X7089999Y49590000D02*
X14059999Y56560000D01*
X15660010Y56750000D02*
X15660010Y55897255D01*
X15660010Y53930061D02*
X15660010Y56750000D01*
X15660010Y51410010D02*
X15660010Y53930061D01*
X5249999Y44510000D02*
X8759999Y44510000D01*
X8759999Y44510000D02*
X15660010Y51410010D01*
X11499999Y127760000D02*
X7069999Y132190000D01*
X11499999Y102348002D02*
X11499999Y127760000D01*
X15660010Y81647256D02*
X18512754Y84500000D01*
X15660010Y56750000D02*
X15660010Y81647256D01*
X20848002Y84500001D02*
X23850000Y87501999D01*
X18512754Y84500000D02*
X20848002Y84500001D01*
X23850000Y87501999D02*
X23850000Y89998001D01*
X23850000Y89998001D02*
X11499999Y102348002D01*
X5250000Y41970000D02*
X9970000Y41970000D01*
X9970000Y41970000D02*
X17250000Y49250000D01*
X17260020Y49260020D02*
X17260019Y56087255D01*
X17250000Y49250000D02*
X17260020Y49260020D01*
X17260019Y56087255D02*
X17260020Y70750000D01*
X17260020Y80760020D02*
X19399990Y82899990D01*
X17260020Y70750000D02*
X17260020Y80760020D01*
X21510747Y82899990D02*
X22448012Y83837255D01*
X19399990Y82899990D02*
X21510747Y82899990D01*
X22448012Y83837256D02*
X25450011Y86839254D01*
X22448012Y83837255D02*
X22448012Y83837256D01*
X25450011Y90660746D02*
X24110756Y92000000D01*
X25450011Y86839254D02*
X25450011Y90660746D01*
X24110756Y92000000D02*
X13610755Y102500000D01*
X13610755Y102500000D02*
X13249999Y102860756D01*
X49309999Y128310000D02*
X49309999Y130320000D01*
X47750000Y126750000D02*
X49309999Y128310000D01*
X13100009Y103010747D02*
X13100009Y117850010D01*
X40500000Y125250000D02*
X41999999Y126750000D01*
X13610755Y102500000D02*
X13100009Y103010747D01*
X13100009Y117850010D02*
X20499999Y125250000D01*
X20499999Y125250000D02*
X40500000Y125250000D01*
X41999999Y126750000D02*
X47750000Y126750000D01*
X1653990Y75883353D02*
X1653990Y32846010D01*
X2804247Y77033610D02*
X1653990Y75883353D01*
X3770000Y77520000D02*
X3283610Y77033610D01*
X1653990Y32846010D02*
X2750000Y31750000D01*
X3283610Y77033610D02*
X2804247Y77033610D01*
X3770000Y77610000D02*
X3770000Y77520000D01*
X4260051Y24190000D02*
X5250000Y24190001D01*
X3158218Y11341781D02*
X3158219Y23088168D01*
X3158219Y23088168D02*
X4260051Y24190000D01*
X4407897Y10092102D02*
X3158218Y11341781D01*
X40749999Y99147631D02*
X40749999Y98070000D01*
X41534370Y99932001D02*
X40749999Y99147631D01*
X49749999Y97750000D02*
X47567999Y99932001D01*
X49749999Y59000000D02*
X49749999Y97750000D01*
X28110000Y47050000D02*
X29099949Y47050000D01*
X29099949Y47050000D02*
X30499999Y48450051D01*
X30499999Y48450051D02*
X30500000Y50269594D01*
X49100008Y58350008D02*
X49749999Y59000000D01*
X47567999Y99932001D02*
X41534370Y99932001D01*
X30500000Y50269594D02*
X38580414Y58350008D01*
X38580414Y58350008D02*
X49100008Y58350008D01*
X43290000Y96992370D02*
X43290000Y98070001D01*
X47249999Y96000000D02*
X44282370Y96000000D01*
X32637650Y54670000D02*
X37917668Y59950018D01*
X37917668Y59950018D02*
X47950017Y59950018D01*
X28110000Y54670000D02*
X32637650Y54670000D01*
X44282370Y96000000D02*
X43290000Y96992370D01*
X48149989Y60149990D02*
X48149989Y95100010D01*
X47950017Y59950018D02*
X48149989Y60149990D01*
X48149989Y95100010D02*
X47249999Y96000000D01*
X44522488Y51597015D02*
X44522488Y54477512D01*
X44522488Y54477512D02*
X44500000Y54500000D01*
X31710000Y57210000D02*
X28110000Y57210001D01*
X44500000Y62250000D02*
X44500000Y62500000D01*
X44500000Y62500000D02*
X43500000Y63500000D01*
X43500000Y63500000D02*
X38000000Y63500000D01*
X38000000Y63500000D02*
X31710000Y57210000D01*
D26*
G36*
X769373Y31961393D02*
X871821Y31892940D01*
X1796930Y30967831D01*
X1865382Y30865384D01*
X1967830Y30796931D01*
X1967832Y30796929D01*
X2119288Y30695730D01*
X2250000Y30608391D01*
X2271250Y30594192D01*
X2325495Y30583402D01*
X2629152Y30523000D01*
X2629157Y30523000D01*
X2750000Y30498963D01*
X2870843Y30523000D01*
X4079208Y30523000D01*
X4200051Y30498963D01*
X4320894Y30523000D01*
X4320897Y30523000D01*
X4528477Y30564290D01*
X4587118Y30540000D01*
X4441669Y30479753D01*
X4040247Y30078331D01*
X3823000Y29553848D01*
X3823000Y28986152D01*
X4040247Y28461669D01*
X4441669Y28060247D01*
X4966152Y27843000D01*
X5533848Y27843000D01*
X6058331Y28060247D01*
X6459753Y28461669D01*
X6677000Y28986152D01*
X6676999Y29553848D01*
X6459753Y30078331D01*
X6058331Y30479753D01*
X5912881Y30540000D01*
X6058330Y30600247D01*
X6459752Y31001669D01*
X6677000Y31526152D01*
X6676999Y32093848D01*
X6459753Y32618331D01*
X6058330Y33019753D01*
X5912881Y33080000D01*
X6058330Y33140247D01*
X6459753Y33541669D01*
X6677000Y34066152D01*
X6677000Y34633848D01*
X6459753Y35158330D01*
X6058330Y35559753D01*
X5912881Y35620000D01*
X6058331Y35680247D01*
X6459753Y36081669D01*
X6676999Y36606152D01*
X6677000Y37173848D01*
X6459753Y37698332D01*
X6058331Y38099753D01*
X5912881Y38160000D01*
X6058331Y38220247D01*
X6459753Y38621669D01*
X6676999Y39146152D01*
X6676999Y39713848D01*
X6459753Y40238331D01*
X6058331Y40639753D01*
X5912881Y40700000D01*
X6016692Y40743000D01*
X9849152Y40743001D01*
X9969999Y40718963D01*
X10448750Y40814192D01*
X10752168Y41016929D01*
X10752169Y41016931D01*
X10854617Y41085384D01*
X10923069Y41187831D01*
X18042190Y48306950D01*
X18144636Y48375403D01*
X18273000Y48567512D01*
X18273000Y45758239D01*
X17967834Y45453073D01*
X17967831Y45453071D01*
X7467833Y34953072D01*
X7365383Y34884617D01*
X7094192Y34478752D01*
X7022999Y34120847D01*
X7022999Y34120843D01*
X6998963Y34000000D01*
X7023000Y33879157D01*
X7023000Y16548291D01*
X6617701Y16142992D01*
X6676999Y16286152D01*
X6676999Y16853848D01*
X6459753Y17378331D01*
X6058331Y17779753D01*
X5912881Y17840000D01*
X6058331Y17900247D01*
X6459753Y18301668D01*
X6677000Y18826152D01*
X6676999Y19393848D01*
X6459753Y19918331D01*
X6058330Y20319753D01*
X5912881Y20380000D01*
X6058330Y20440247D01*
X6459753Y20841670D01*
X6677000Y21366152D01*
X6677000Y21933848D01*
X6459753Y22458331D01*
X6058330Y22859753D01*
X5912881Y22920001D01*
X6058330Y22980247D01*
X6459753Y23381669D01*
X6676999Y23906152D01*
X6677000Y24473848D01*
X6459752Y24998331D01*
X6058330Y25399753D01*
X5533848Y25617000D01*
X4966152Y25617000D01*
X4483307Y25417000D01*
X4380893Y25417000D01*
X4260051Y25441037D01*
X4139208Y25417000D01*
X4139204Y25417000D01*
X3781299Y25345808D01*
X3563808Y25200485D01*
X3477882Y25143071D01*
X3477881Y25143070D01*
X3375434Y25074617D01*
X3306981Y24972170D01*
X2376051Y24041240D01*
X2273601Y23972785D01*
X2002410Y23566920D01*
X1931219Y23209015D01*
X1931219Y23209011D01*
X1907181Y23088168D01*
X1931218Y22967325D01*
X1931219Y11462624D01*
X1907182Y11341781D01*
X1931218Y11220938D01*
X1931219Y11220935D01*
X2002411Y10863029D01*
X2273601Y10457164D01*
X2376050Y10388711D01*
X2431218Y10333542D01*
X2431218Y9698916D01*
X2732150Y8972404D01*
X3288198Y8416355D01*
X4014712Y8115422D01*
X4801084Y8115422D01*
X5527596Y8416354D01*
X6083645Y8972403D01*
X6384578Y9698916D01*
X6384578Y10485288D01*
X6083645Y11211802D01*
X5527596Y11767851D01*
X4801084Y12068782D01*
X4385219Y12068782D01*
X4385219Y12876697D01*
X4441669Y12820247D01*
X4966152Y12602999D01*
X5533847Y12603000D01*
X6016693Y12803000D01*
X6119105Y12803000D01*
X6239949Y12778964D01*
X6360792Y12803000D01*
X6360795Y12803000D01*
X6718699Y12874193D01*
X7124565Y13145383D01*
X7193020Y13247833D01*
X7343428Y13398240D01*
X7365383Y13365383D01*
X7467830Y13296931D01*
X13046930Y7717831D01*
X13115383Y7615384D01*
X13217830Y7546931D01*
X13217832Y7546929D01*
X13521249Y7344192D01*
X14000000Y7248963D01*
X14120847Y7273001D01*
X30553911Y7273000D01*
X30565182Y7216339D01*
X30725863Y6975863D01*
X30966339Y6815182D01*
X31249999Y6758758D01*
X33249999Y6758758D01*
X33533660Y6815182D01*
X33774137Y6975863D01*
X33934817Y7216339D01*
X33946089Y7273000D01*
X43411758Y7273001D01*
X44922999Y5761761D01*
X44923000Y5102772D01*
X45227025Y4368790D01*
X45788789Y3807025D01*
X46522772Y3503000D01*
X47317228Y3503000D01*
X48051210Y3807025D01*
X48612975Y4368790D01*
X48916999Y5102772D01*
X48916999Y5897228D01*
X48612975Y6631210D01*
X48051210Y7192975D01*
X47317228Y7497000D01*
X46658239Y7497001D01*
X44873069Y9282170D01*
X44804617Y9384617D01*
X44398752Y9655808D01*
X44040847Y9727000D01*
X44040843Y9727000D01*
X43919999Y9751037D01*
X43799157Y9727000D01*
X33946089Y9727000D01*
X33934818Y9783661D01*
X33774137Y10024137D01*
X33533661Y10184818D01*
X33487021Y10194095D01*
X33487021Y11093001D01*
X34372977Y11093000D01*
X35191494Y11432040D01*
X35817960Y12058506D01*
X36156999Y12877022D01*
X36156999Y13762978D01*
X35817960Y14581494D01*
X35191494Y15207960D01*
X34372977Y15547000D01*
X33487021Y15547000D01*
X32668506Y15207960D01*
X32042040Y14581494D01*
X31703000Y13762978D01*
X31703000Y12877022D01*
X32042040Y12058506D01*
X32668506Y11432040D01*
X33487021Y11093001D01*
X33487021Y10194095D01*
X33249999Y10241242D01*
X31250000Y10241242D01*
X30966339Y10184818D01*
X30725862Y10024137D01*
X30565181Y9783661D01*
X30553911Y9727000D01*
X14508239Y9727000D01*
X9477000Y14758240D01*
X9476999Y15919207D01*
X9501037Y16040050D01*
X9477000Y16160893D01*
X9476999Y33491761D01*
X19703071Y43717831D01*
X19703072Y43717834D01*
X20282166Y44296928D01*
X20384616Y44365383D01*
X20655807Y44771248D01*
X20727000Y45129153D01*
X20727000Y45129156D01*
X20751036Y45249999D01*
X20727000Y45370842D01*
X20727000Y64567495D01*
X20794528Y64635023D01*
X21027000Y65196261D01*
X21027000Y65803739D01*
X20845584Y66241715D01*
X22376869Y67773000D01*
X37491759Y67773001D01*
X38459799Y66804961D01*
X38804960Y66459800D01*
X38918801Y66412645D01*
X39021250Y66344192D01*
X39142093Y66320155D01*
X39255935Y66273000D01*
X39379157Y66273000D01*
X39499999Y66248964D01*
X39620843Y66273000D01*
X39744065Y66273000D01*
X39857907Y66320155D01*
X39978750Y66344192D01*
X40081198Y66412645D01*
X40195039Y66459800D01*
X40282168Y66546929D01*
X40384617Y66615383D01*
X40453070Y66717832D01*
X40540199Y66804961D01*
X40587355Y66918802D01*
X40655808Y67021250D01*
X40679845Y67142092D01*
X40727000Y67255935D01*
X40727000Y67379157D01*
X40751036Y67500000D01*
X40726999Y67620843D01*
X40727000Y67744065D01*
X40679845Y67857907D01*
X40655808Y67978750D01*
X40587355Y68081198D01*
X40540199Y68195040D01*
X38953070Y69782169D01*
X38884616Y69884617D01*
X38717831Y69996060D01*
X38478752Y70155808D01*
X38305534Y70190263D01*
X38120846Y70227000D01*
X38120844Y70227000D01*
X38000000Y70251037D01*
X37879157Y70227000D01*
X32766557Y70227001D01*
X32766557Y91904127D01*
X33652513Y91904128D01*
X34471028Y92243167D01*
X35097495Y92869633D01*
X35436535Y93688150D01*
X35436535Y94574105D01*
X35373820Y94725512D01*
X35373820Y120481000D01*
X35966180Y120481000D01*
X36513450Y120707688D01*
X36932312Y121126549D01*
X36939999Y121145107D01*
X36947686Y121126549D01*
X37366549Y120707687D01*
X37913820Y120481000D01*
X38506180Y120481000D01*
X39053451Y120707687D01*
X39472313Y121126549D01*
X39480000Y121145107D01*
X39487687Y121126549D01*
X39906548Y120707687D01*
X40453820Y120481000D01*
X41046180Y120481000D01*
X41593451Y120707687D01*
X42012313Y121126549D01*
X42020000Y121145107D01*
X42027687Y121126549D01*
X42446549Y120707688D01*
X42993820Y120481000D01*
X43586180Y120481000D01*
X44133450Y120707687D01*
X44552313Y121126549D01*
X44560000Y121145107D01*
X44567687Y121126549D01*
X44986548Y120707688D01*
X45533819Y120481000D01*
X46126180Y120481000D01*
X46673451Y120707688D01*
X47092312Y121126549D01*
X47099999Y121145107D01*
X47107686Y121126549D01*
X47526549Y120707687D01*
X48073820Y120481000D01*
X48666179Y120481000D01*
X49213451Y120707687D01*
X49632313Y121126549D01*
X49640000Y121145107D01*
X49647687Y121126549D01*
X50066548Y120707687D01*
X50613819Y120481000D01*
X51206180Y120481000D01*
X51753451Y120707687D01*
X52172312Y121126549D01*
X52399000Y121673820D01*
X52399000Y122266180D01*
X52172312Y122813451D01*
X51753451Y123232313D01*
X51206180Y123459000D01*
X50613819Y123459000D01*
X50066548Y123232313D01*
X49647687Y122813451D01*
X49640000Y122794893D01*
X49632313Y122813451D01*
X49213450Y123232313D01*
X48666179Y123459000D01*
X48073820Y123459000D01*
X47526549Y123232313D01*
X47107687Y122813451D01*
X47099999Y122794894D01*
X47092312Y122813452D01*
X46673451Y123232313D01*
X46126180Y123459000D01*
X45533819Y123459000D01*
X44986548Y123232313D01*
X44567687Y122813452D01*
X44560000Y122794894D01*
X44552313Y122813452D01*
X44133451Y123232313D01*
X43586180Y123459000D01*
X42993820Y123459000D01*
X42446549Y123232313D01*
X42027686Y122813451D01*
X42019999Y122794893D01*
X42012312Y122813451D01*
X41593451Y123232313D01*
X41046180Y123459000D01*
X40453820Y123459000D01*
X39906549Y123232313D01*
X39487687Y122813451D01*
X39480000Y122794893D01*
X39472313Y122813451D01*
X39053450Y123232313D01*
X38506180Y123459000D01*
X37913820Y123459000D01*
X37366549Y123232313D01*
X36947687Y122813451D01*
X36940000Y122794893D01*
X36932313Y122813451D01*
X36513450Y123232313D01*
X35966180Y123459000D01*
X35373820Y123459000D01*
X34826548Y123232313D01*
X34407686Y122813452D01*
X34181000Y122266180D01*
X34180999Y121673820D01*
X34407686Y121126549D01*
X34826549Y120707687D01*
X35373820Y120481000D01*
X35373820Y94725512D01*
X35097495Y95392621D01*
X34471028Y96019088D01*
X33652513Y96358127D01*
X32766557Y96358128D01*
X31948041Y96019087D01*
X31321575Y95392621D01*
X30982535Y94574106D01*
X30982535Y93688149D01*
X31321574Y92869633D01*
X31948040Y92243167D01*
X32766557Y91904127D01*
X32766557Y70227001D01*
X25827021Y70227000D01*
X25827021Y74113000D01*
X26712978Y74113000D01*
X27531493Y74452040D01*
X28157959Y75078506D01*
X28497000Y75897022D01*
X28496999Y76782978D01*
X28157959Y77601494D01*
X27531494Y78227960D01*
X26712977Y78567000D01*
X25827022Y78567000D01*
X25008506Y78227960D01*
X24382039Y77601494D01*
X24043000Y76782978D01*
X24042999Y75897022D01*
X24382040Y75078506D01*
X25008506Y74452041D01*
X25827021Y74113000D01*
X25827021Y70227000D01*
X21989472Y70227000D01*
X21868630Y70251037D01*
X21747787Y70227001D01*
X21747783Y70227000D01*
X21389878Y70155808D01*
X20984012Y69884617D01*
X20915559Y69782170D01*
X18717831Y67584441D01*
X18615383Y67515987D01*
X18487020Y67323880D01*
X18487020Y80251781D01*
X19908231Y81672990D01*
X21389899Y81672991D01*
X21510746Y81648953D01*
X21989497Y81744182D01*
X21989498Y81744183D01*
X21989498Y81744183D01*
X22098982Y81817337D01*
X22292914Y81946919D01*
X22292917Y81946921D01*
X22395364Y82015374D01*
X22463816Y82117821D01*
X23230181Y82884184D01*
X23332629Y82952638D01*
X23401086Y83055091D01*
X26232179Y85886184D01*
X26334628Y85954637D01*
X26605819Y86360502D01*
X26677010Y86718407D01*
X26677010Y86718410D01*
X26701048Y86839253D01*
X26677010Y86960096D01*
X26677011Y90539903D01*
X26701047Y90660746D01*
X26677011Y90781589D01*
X26677010Y90781593D01*
X26605819Y91139498D01*
X26334628Y91545363D01*
X26232178Y91613818D01*
X24892923Y92953072D01*
X24892921Y92953074D01*
X20807021Y97038973D01*
X20807021Y113523000D01*
X21692977Y113523000D01*
X22511494Y113862040D01*
X23137959Y114488506D01*
X23476999Y115307022D01*
X23477000Y116192978D01*
X23137959Y117011494D01*
X22511493Y117637960D01*
X21692978Y117977000D01*
X20807021Y117977000D01*
X19988506Y117637960D01*
X19362040Y117011494D01*
X19023000Y116192978D01*
X19023000Y115307022D01*
X19362040Y114488507D01*
X19988506Y113862040D01*
X20807021Y113523000D01*
X20807021Y97038973D01*
X14392924Y103453072D01*
X14392922Y103453073D01*
X14327009Y103518985D01*
X14327010Y117341771D01*
X21008239Y124023000D01*
X40379152Y124023001D01*
X40500000Y123998963D01*
X40978750Y124094192D01*
X41282167Y124296929D01*
X41282169Y124296931D01*
X41384617Y124365384D01*
X41453069Y124467831D01*
X42508240Y125523000D01*
X47629152Y125523001D01*
X47750000Y125498963D01*
X48228750Y125594192D01*
X48532168Y125796929D01*
X48532169Y125796931D01*
X48634617Y125865384D01*
X48703070Y125967832D01*
X50092168Y127356930D01*
X50194616Y127425383D01*
X50465807Y127831248D01*
X50537000Y128189153D01*
X50537000Y128189156D01*
X50561036Y128309999D01*
X50537000Y128430842D01*
X50536999Y129441236D01*
X50572312Y129476549D01*
X50798999Y130023820D01*
X50798999Y130616180D01*
X50572312Y131163451D01*
X50153451Y131582313D01*
X49606180Y131809000D01*
X49013819Y131809000D01*
X48466548Y131582313D01*
X48047687Y131163451D01*
X48040000Y131144893D01*
X48032313Y131163451D01*
X47613451Y131582313D01*
X47066180Y131809000D01*
X46473820Y131809000D01*
X45926549Y131582313D01*
X45507687Y131163451D01*
X45281000Y130616180D01*
X45281000Y130023820D01*
X45507687Y129476549D01*
X45926549Y129057687D01*
X46473820Y128831000D01*
X47066180Y128831000D01*
X47613451Y129057687D01*
X48032313Y129476549D01*
X48040000Y129495107D01*
X48047687Y129476549D01*
X48082999Y129441236D01*
X48082999Y128818240D01*
X47241761Y127977000D01*
X42120842Y127977001D01*
X41999998Y128001037D01*
X41879154Y127977000D01*
X41879153Y127977001D01*
X41521247Y127905808D01*
X41217830Y127703071D01*
X41217830Y127703070D01*
X41115383Y127634617D01*
X41046930Y127532170D01*
X39991761Y126477000D01*
X38935478Y126477000D01*
X39261494Y126612040D01*
X39887959Y127238506D01*
X40226999Y128057022D01*
X40227000Y128942978D01*
X39887959Y129761494D01*
X39261494Y130387960D01*
X38442978Y130727000D01*
X37557021Y130727000D01*
X36738506Y130387960D01*
X36112040Y129761494D01*
X35772999Y128942978D01*
X35772999Y128057022D01*
X36112040Y127238506D01*
X36738506Y126612040D01*
X37064521Y126477000D01*
X33185478Y126477000D01*
X33511494Y126612040D01*
X34137959Y127238506D01*
X34476999Y128057022D01*
X34477000Y128942978D01*
X34137959Y129761494D01*
X33511494Y130387960D01*
X32692978Y130727000D01*
X31807021Y130727000D01*
X30988506Y130387960D01*
X30362040Y129761494D01*
X30022999Y128942978D01*
X30022999Y128057022D01*
X30362040Y127238506D01*
X30988506Y126612040D01*
X31314521Y126477000D01*
X20620842Y126477001D01*
X20499998Y126501037D01*
X20379153Y126477000D01*
X20379153Y126477000D01*
X20021248Y126405808D01*
X19905807Y126328673D01*
X19717830Y126203071D01*
X19717829Y126203070D01*
X19615382Y126134617D01*
X19546930Y126032170D01*
X12727000Y119212239D01*
X12726999Y127639157D01*
X12751037Y127760000D01*
X12726999Y127880843D01*
X12727000Y127880847D01*
X12655808Y128238752D01*
X12384617Y128644617D01*
X12282167Y128713073D01*
X8558999Y132436240D01*
X8558999Y132486180D01*
X8332312Y133033451D01*
X7913450Y133452313D01*
X7894892Y133460000D01*
X7913450Y133467687D01*
X8332313Y133886549D01*
X8559000Y134433820D01*
X8558999Y135026180D01*
X8332313Y135573451D01*
X7913451Y135992313D01*
X7366179Y136219000D01*
X6773820Y136219000D01*
X6226549Y135992313D01*
X5807686Y135573451D01*
X5580999Y135026180D01*
X5581000Y134433820D01*
X5807687Y133886549D01*
X6226549Y133467687D01*
X6245106Y133460000D01*
X6226548Y133452313D01*
X5807686Y133033451D01*
X5580999Y132486180D01*
X5580999Y131893820D01*
X5807686Y131346549D01*
X6226548Y130927687D01*
X6773819Y130701000D01*
X6823759Y130701000D01*
X10272999Y127251761D01*
X10272999Y102468845D01*
X10248963Y102348001D01*
X10272999Y102227159D01*
X10272999Y102227155D01*
X10344191Y101869251D01*
X10615382Y101463385D01*
X10717830Y101394932D01*
X21135762Y90977000D01*
X20807021Y90977000D01*
X19988506Y90637960D01*
X19362040Y90011494D01*
X19023000Y89192978D01*
X19023000Y88307022D01*
X19362040Y87488506D01*
X19988506Y86862041D01*
X20807021Y86523000D01*
X21135762Y86523000D01*
X20339762Y85727000D01*
X18946734Y85727000D01*
X19001037Y86000000D01*
X19001037Y86000000D01*
X18905808Y86478750D01*
X18787000Y86656560D01*
X18787000Y89691236D01*
X18822313Y89726548D01*
X19048999Y90273820D01*
X19049000Y90866180D01*
X18822313Y91413451D01*
X18403450Y91832313D01*
X17856179Y92059000D01*
X17263820Y92059000D01*
X16716549Y91832312D01*
X16297687Y91413451D01*
X16289999Y91394893D01*
X16282312Y91413451D01*
X15863451Y91832313D01*
X15316180Y92059000D01*
X14723819Y92059000D01*
X14176548Y91832313D01*
X13757687Y91413451D01*
X13530999Y90866180D01*
X13530999Y90273820D01*
X13757687Y89726549D01*
X14176548Y89307687D01*
X14723819Y89081000D01*
X15316180Y89081000D01*
X15863451Y89307687D01*
X16282312Y89726549D01*
X16289999Y89745107D01*
X16297686Y89726549D01*
X16332999Y89691236D01*
X16333000Y86318240D01*
X13277832Y83263071D01*
X13175382Y83194617D01*
X12904192Y82788753D01*
X12832999Y82430847D01*
X12832999Y82430843D01*
X12808963Y82310000D01*
X12833000Y82189157D01*
X12832999Y66699732D01*
X12475806Y66938402D01*
X11880000Y67056915D01*
X11284194Y66938402D01*
X10967809Y66727000D01*
X10370847Y66727000D01*
X10250000Y66751038D01*
X10129153Y66727000D01*
X9682504Y66727000D01*
X9614976Y66794528D01*
X9053739Y67027000D01*
X8446261Y67027000D01*
X7885024Y66794528D01*
X7477000Y66386504D01*
X7476999Y79177761D01*
X10722170Y82422930D01*
X10824616Y82491383D01*
X11095807Y82897248D01*
X11167000Y83255153D01*
X11167000Y83255156D01*
X11191036Y83375999D01*
X11167000Y83496842D01*
X11167000Y89691236D01*
X11202313Y89726549D01*
X11429000Y90273820D01*
X11428999Y90866180D01*
X11202313Y91413451D01*
X10783451Y91832313D01*
X10236180Y92059000D01*
X10186239Y92059000D01*
X5807022Y96438217D01*
X5807022Y113523000D01*
X6692978Y113523000D01*
X7511493Y113862040D01*
X8137960Y114488507D01*
X8477000Y115307022D01*
X8477000Y116192978D01*
X8137960Y117011495D01*
X7511494Y117637960D01*
X6692978Y117977000D01*
X5807022Y117977000D01*
X4988506Y117637960D01*
X4362040Y117011494D01*
X4023000Y116192978D01*
X4023000Y115307022D01*
X4362040Y114488506D01*
X4988505Y113862040D01*
X5807022Y113523000D01*
X5807022Y96438217D01*
X3477000Y98768240D01*
X3477000Y127123547D01*
X3988506Y126612040D01*
X4807021Y126273000D01*
X5692977Y126273000D01*
X6511494Y126612040D01*
X7137959Y127238506D01*
X7476999Y128057022D01*
X7476999Y128942978D01*
X7137959Y129761494D01*
X6511493Y130387960D01*
X5692977Y130727000D01*
X4807021Y130727000D01*
X3988506Y130387960D01*
X3477000Y129876454D01*
X3477000Y136241761D01*
X5818240Y138583000D01*
X6191236Y138583000D01*
X6226549Y138547687D01*
X6773820Y138321000D01*
X7366179Y138321000D01*
X7913450Y138547688D01*
X7948764Y138583001D01*
X33879152Y138583000D01*
X34570846Y138583000D01*
X34570851Y138583001D01*
X40463000Y138583000D01*
X40463000Y131198764D01*
X40427687Y131163451D01*
X40201000Y130616180D01*
X40201000Y130023821D01*
X40427686Y129476549D01*
X40846549Y129057687D01*
X41393820Y128831000D01*
X41986179Y128831000D01*
X42533451Y129057687D01*
X42952313Y129476549D01*
X43179000Y130023821D01*
X43179000Y130616180D01*
X42952313Y131163451D01*
X42917000Y131198764D01*
X42917000Y138583000D01*
X49931760Y138583000D01*
X54296929Y134217832D01*
X54582535Y133932226D01*
X54582535Y130066918D01*
X54261493Y130387960D01*
X53442978Y130727000D01*
X52557022Y130727000D01*
X51738505Y130387960D01*
X51112039Y129761494D01*
X50773000Y128942978D01*
X50773000Y128057022D01*
X51112039Y127238506D01*
X51738505Y126612040D01*
X52557022Y126273000D01*
X53442978Y126273000D01*
X54261493Y126612040D01*
X54582535Y126933082D01*
X54582535Y116978161D01*
X38189831Y100585455D01*
X38087382Y100517001D01*
X37816191Y100111136D01*
X37744999Y99753231D01*
X37744999Y99753227D01*
X37720961Y99632384D01*
X37744999Y99511541D01*
X37744999Y99489072D01*
X37366549Y99332313D01*
X36947687Y98913451D01*
X36721000Y98366180D01*
X36721000Y97773820D01*
X36947687Y97226549D01*
X37366549Y96807687D01*
X37913820Y96581000D01*
X38506180Y96581000D01*
X39053451Y96807687D01*
X39472313Y97226549D01*
X39480000Y97245107D01*
X39487687Y97226549D01*
X39906548Y96807687D01*
X40453819Y96581000D01*
X41046180Y96581000D01*
X41593451Y96807687D01*
X42012312Y97226549D01*
X42020000Y97245107D01*
X42027687Y97226549D01*
X42063000Y97191236D01*
X42062999Y97113212D01*
X42038963Y96992369D01*
X42062999Y96871526D01*
X42062999Y96871523D01*
X42134192Y96513618D01*
X42405383Y96107753D01*
X42507831Y96039299D01*
X43329299Y95217832D01*
X43397752Y95115384D01*
X43500200Y95046931D01*
X43500201Y95046930D01*
X43620847Y94966317D01*
X43794192Y94850492D01*
X43803620Y94844192D01*
X44282369Y94748963D01*
X44403216Y94773001D01*
X46741759Y94773000D01*
X46922989Y94591771D01*
X46922990Y61177018D01*
X45115895Y61177018D01*
X45195039Y61209800D01*
X45282167Y61296928D01*
X45384617Y61365383D01*
X45453072Y61467833D01*
X45540200Y61554961D01*
X45587353Y61668798D01*
X45655808Y61771248D01*
X45679846Y61892096D01*
X45727000Y62005935D01*
X45727000Y62379158D01*
X45751036Y62500000D01*
X45727000Y62620843D01*
X45727000Y62620847D01*
X45655807Y62978752D01*
X45384617Y63384617D01*
X45282166Y63453073D01*
X44453070Y64282170D01*
X44384617Y64384617D01*
X44282170Y64453071D01*
X44282168Y64453072D01*
X44133450Y64552441D01*
X43978752Y64655808D01*
X43620847Y64727000D01*
X43620842Y64727000D01*
X43499999Y64751037D01*
X43379157Y64727000D01*
X38120841Y64727000D01*
X37999998Y64751037D01*
X37879156Y64727000D01*
X37879153Y64727000D01*
X37521247Y64655808D01*
X37115382Y64384617D01*
X37046929Y64282169D01*
X31201761Y58437001D01*
X28876692Y58437000D01*
X28393848Y58637000D01*
X27826152Y58637000D01*
X27301669Y58419754D01*
X26900246Y58018331D01*
X26683000Y57493848D01*
X26683000Y56926152D01*
X26900247Y56401669D01*
X27301669Y56000247D01*
X27447118Y55940000D01*
X27301669Y55879753D01*
X26900247Y55478331D01*
X26683000Y54953848D01*
X26683000Y54386152D01*
X26900246Y53861669D01*
X27301669Y53460247D01*
X27447118Y53400000D01*
X27301669Y53339753D01*
X26900247Y52938331D01*
X26683000Y52413848D01*
X26683000Y51846152D01*
X26900247Y51321669D01*
X27301669Y50920247D01*
X27447119Y50860000D01*
X27301669Y50799753D01*
X26900247Y50398331D01*
X26683000Y49873848D01*
X26683000Y49306153D01*
X26900247Y48781669D01*
X27301669Y48380247D01*
X27447119Y48320000D01*
X27301669Y48259753D01*
X26900246Y47858331D01*
X26683000Y47333848D01*
X26683000Y46766152D01*
X26900247Y46241669D01*
X27301669Y45840248D01*
X27826152Y45623000D01*
X28393847Y45623000D01*
X28876692Y45823000D01*
X28979105Y45823000D01*
X29099949Y45798963D01*
X29220792Y45823000D01*
X29220796Y45823000D01*
X29578700Y45894192D01*
X29984565Y46165384D01*
X30053019Y46267831D01*
X31282168Y47496981D01*
X31384616Y47565434D01*
X31453070Y47667881D01*
X31453071Y47667882D01*
X31481211Y47709997D01*
X31948040Y47243167D01*
X32766557Y46904127D01*
X33652512Y46904127D01*
X34471028Y47243167D01*
X35097495Y47869633D01*
X35436534Y48688149D01*
X35436535Y49574105D01*
X35097495Y50392622D01*
X34471029Y51019087D01*
X33652513Y51358127D01*
X33323772Y51358127D01*
X38215488Y56249842D01*
X38215488Y52599203D01*
X37956986Y52212330D01*
X37865488Y51752334D01*
X37865487Y51441696D01*
X37956987Y50981700D01*
X38305535Y50460063D01*
X38827173Y50111514D01*
X39442488Y49989120D01*
X40057802Y50111514D01*
X40579441Y50460062D01*
X40712488Y50659181D01*
X40755487Y50594827D01*
X40755488Y47490728D01*
X38511771Y45247011D01*
X31878098Y45247011D01*
X31757254Y45271048D01*
X31636409Y45247011D01*
X31636409Y45247011D01*
X31278504Y45175819D01*
X30988506Y44982048D01*
X30975086Y44973082D01*
X30975085Y44973081D01*
X30872638Y44904628D01*
X30804185Y44802182D01*
X29199006Y43197000D01*
X28876692Y43197000D01*
X28393847Y43397000D01*
X27826152Y43397001D01*
X27301669Y43179753D01*
X26900247Y42778331D01*
X26683000Y42253849D01*
X26683000Y41686152D01*
X26900246Y41161669D01*
X27301669Y40760247D01*
X27447119Y40700000D01*
X27301669Y40639753D01*
X26900247Y40238331D01*
X26683000Y39713848D01*
X26683000Y39146153D01*
X26900247Y38621669D01*
X27301669Y38220247D01*
X27447119Y38160000D01*
X27301669Y38099753D01*
X26900247Y37698332D01*
X26683000Y37173848D01*
X26683000Y36606152D01*
X26900247Y36081669D01*
X27301669Y35680247D01*
X27447118Y35620000D01*
X27301669Y35559754D01*
X26900246Y35158331D01*
X26683000Y34633848D01*
X26683000Y34066152D01*
X26900247Y33541669D01*
X27301669Y33140247D01*
X27447118Y33080000D01*
X27301669Y33019753D01*
X26900247Y32618331D01*
X26683000Y32093848D01*
X26683000Y31526152D01*
X26900246Y31001669D01*
X27301669Y30600247D01*
X27447118Y30540000D01*
X27301669Y30479753D01*
X26900247Y30078331D01*
X26683000Y29553848D01*
X26683000Y28986152D01*
X26900247Y28461669D01*
X27301669Y28060247D01*
X27447119Y28000000D01*
X27301669Y27939753D01*
X26900247Y27538331D01*
X26683000Y27013848D01*
X26683000Y26446153D01*
X26900247Y25921669D01*
X27301669Y25520247D01*
X27447119Y25460000D01*
X27301669Y25399753D01*
X26900246Y24998331D01*
X26683000Y24473848D01*
X26683000Y23906152D01*
X26900247Y23381669D01*
X27301669Y22980248D01*
X27447118Y22920000D01*
X27301669Y22859753D01*
X26900247Y22458331D01*
X26683000Y21933848D01*
X26683000Y21366152D01*
X26900247Y20841670D01*
X27301669Y20440247D01*
X27447118Y20380000D01*
X27301669Y20319753D01*
X26900247Y19918331D01*
X26683000Y19393849D01*
X26683000Y18826152D01*
X26900246Y18301669D01*
X27301669Y17900247D01*
X27447119Y17840000D01*
X27301669Y17779753D01*
X26900247Y17378331D01*
X26683000Y16853848D01*
X26683000Y16286153D01*
X26900247Y15761669D01*
X27301669Y15360247D01*
X27447119Y15300000D01*
X27301669Y15239753D01*
X26900247Y14838332D01*
X26683000Y14313848D01*
X26683000Y13746152D01*
X26900247Y13221669D01*
X27301669Y12820247D01*
X27826152Y12603000D01*
X28393847Y12603000D01*
X28918331Y12820247D01*
X29319753Y13221669D01*
X29536999Y13746152D01*
X29537000Y14313848D01*
X29319753Y14838332D01*
X28918331Y15239753D01*
X28772881Y15300000D01*
X28918331Y15360247D01*
X29319753Y15761669D01*
X29536999Y16286152D01*
X29536999Y16853848D01*
X29319753Y17378331D01*
X28918331Y17779753D01*
X28772881Y17840000D01*
X28918331Y17900247D01*
X29319753Y18301668D01*
X29537000Y18826152D01*
X29536999Y19393848D01*
X29319753Y19918331D01*
X28918330Y20319753D01*
X28772881Y20380000D01*
X28918330Y20440247D01*
X29319753Y20841670D01*
X29537000Y21366152D01*
X29537000Y21933848D01*
X29319753Y22458331D01*
X28918330Y22859753D01*
X28772881Y22920001D01*
X28918330Y22980247D01*
X29319753Y23381669D01*
X29536999Y23906152D01*
X29537000Y24473848D01*
X29319753Y24998332D01*
X28918331Y25399753D01*
X28772881Y25460000D01*
X28918331Y25520247D01*
X29319753Y25921669D01*
X29536999Y26446152D01*
X29537000Y27013848D01*
X29319753Y27538331D01*
X28918331Y27939753D01*
X28772881Y28000000D01*
X28918331Y28060247D01*
X29319753Y28461669D01*
X29537000Y28986152D01*
X29536999Y29553848D01*
X29319753Y30078331D01*
X28918331Y30479753D01*
X28772881Y30540000D01*
X28876694Y30583001D01*
X33681760Y30583000D01*
X41182999Y23081761D01*
X41183000Y14768764D01*
X41147687Y14733451D01*
X40921000Y14186180D01*
X40921000Y13593820D01*
X41147687Y13046549D01*
X41566549Y12627687D01*
X42113820Y12401000D01*
X42706180Y12401000D01*
X43253451Y12627687D01*
X43672313Y13046549D01*
X43680000Y13065107D01*
X43687687Y13046549D01*
X44106548Y12627687D01*
X44653819Y12401000D01*
X45246180Y12401000D01*
X45793451Y12627687D01*
X46212312Y13046549D01*
X46219999Y13065107D01*
X46227686Y13046549D01*
X46646549Y12627687D01*
X47193820Y12401000D01*
X47786179Y12401000D01*
X48333450Y12627687D01*
X48752312Y13046549D01*
X48978999Y13593820D01*
X48979000Y13643761D01*
X49034166Y13698927D01*
X49136616Y13767382D01*
X49407806Y14173247D01*
X49478999Y14531152D01*
X49478999Y14531155D01*
X49503036Y14651998D01*
X49478999Y14772841D01*
X49478999Y39493760D01*
X56591706Y46606466D01*
X56694153Y46674919D01*
X56762606Y46777366D01*
X56762607Y46777367D01*
X56965344Y47080784D01*
X57036535Y47438689D01*
X57036535Y47438692D01*
X57060573Y47559535D01*
X57036535Y47680378D01*
X57036535Y115909236D01*
X57060573Y116030079D01*
X57036535Y116150922D01*
X57036535Y134319621D01*
X57060573Y134440464D01*
X57036535Y134561307D01*
X57036536Y134561311D01*
X56965344Y134919216D01*
X56694152Y135325081D01*
X56591702Y135393536D01*
X56032167Y135953071D01*
X52557022Y139428217D01*
X52557022Y153273000D01*
X53442978Y153273000D01*
X54261493Y153612040D01*
X54887960Y154238506D01*
X55227000Y155057022D01*
X55227000Y155942978D01*
X54887960Y156761494D01*
X54261493Y157387960D01*
X53442977Y157727000D01*
X52557022Y157727000D01*
X51738505Y157387960D01*
X51112039Y156761494D01*
X50773000Y155942978D01*
X50772999Y155057022D01*
X51112040Y154238507D01*
X51738506Y153612040D01*
X52557022Y153273000D01*
X52557022Y139428217D01*
X51393069Y140592170D01*
X51324617Y140694616D01*
X51206180Y140773755D01*
X50918752Y140965808D01*
X50905808Y140968383D01*
X50560847Y141037000D01*
X50560844Y141037000D01*
X50440001Y141061037D01*
X50319157Y141037000D01*
X41620842Y141037000D01*
X41499999Y141061037D01*
X41379157Y141037000D01*
X37557021Y141037000D01*
X37557022Y153273000D01*
X38442977Y153273000D01*
X39261494Y153612040D01*
X39887959Y154238506D01*
X40226999Y155057022D01*
X40227000Y155942978D01*
X39887959Y156761494D01*
X39261493Y157387960D01*
X38442978Y157727000D01*
X37557021Y157727000D01*
X36738506Y157387959D01*
X36112040Y156761494D01*
X35772999Y155942978D01*
X35773000Y155057022D01*
X36112039Y154238507D01*
X36738506Y153612040D01*
X37557022Y153273000D01*
X37557021Y141037000D01*
X31807021Y141037000D01*
X31807021Y141273000D01*
X32692978Y141273000D01*
X33511493Y141612040D01*
X34137959Y142238506D01*
X34477000Y143057022D01*
X34476999Y143942978D01*
X34137960Y144761494D01*
X33511494Y145387960D01*
X32692977Y145727000D01*
X31807022Y145727000D01*
X30988506Y145387960D01*
X30362039Y144761494D01*
X30023000Y143942978D01*
X30022999Y143057022D01*
X30362039Y142238506D01*
X30988506Y141612039D01*
X31807021Y141273000D01*
X31807021Y141037000D01*
X7948763Y141037000D01*
X7913450Y141072313D01*
X7366179Y141299000D01*
X6773820Y141299000D01*
X6226548Y141072313D01*
X6191235Y141037000D01*
X5430842Y141037000D01*
X5310000Y141061037D01*
X5189157Y141037000D01*
X5189153Y141037000D01*
X4831248Y140965808D01*
X4807022Y140949621D01*
X4807021Y141273000D01*
X5692978Y141273000D01*
X6511493Y141612040D01*
X7137959Y142238506D01*
X7477000Y143057022D01*
X7476999Y143942978D01*
X7137959Y144761494D01*
X6511494Y145387960D01*
X5692977Y145727000D01*
X4807022Y145727000D01*
X3988506Y145387960D01*
X3362040Y144761494D01*
X3023000Y143942978D01*
X3023000Y143057022D01*
X3362040Y142238506D01*
X3988505Y141612040D01*
X4807021Y141273000D01*
X4807022Y140949621D01*
X4654617Y140847787D01*
X4527832Y140763071D01*
X4527830Y140763070D01*
X4425382Y140694617D01*
X4356930Y140592170D01*
X1467833Y137703073D01*
X1365383Y137634618D01*
X1094192Y137228752D01*
X1023000Y136870847D01*
X1023000Y136870843D01*
X998963Y136750000D01*
X1023000Y136629158D01*
X1023000Y98380843D01*
X998963Y98259999D01*
X1023000Y98139156D01*
X1023000Y98139153D01*
X1094192Y97781248D01*
X1365383Y97375383D01*
X1467830Y97306930D01*
X8450999Y90323761D01*
X8451000Y90273820D01*
X8677687Y89726549D01*
X8713000Y89691236D01*
X8712999Y83884240D01*
X6156168Y81327407D01*
X5906847Y81377000D01*
X5906843Y81377000D01*
X5807022Y81396855D01*
X5807022Y86523001D01*
X6692978Y86523000D01*
X7511493Y86862041D01*
X8137960Y87488507D01*
X8477000Y88307022D01*
X8477000Y89192978D01*
X8137960Y90011493D01*
X7511493Y90637960D01*
X6692978Y90977000D01*
X5807022Y90977000D01*
X4988506Y90637960D01*
X4362040Y90011494D01*
X4023000Y89192978D01*
X4023000Y88307022D01*
X4362040Y87488506D01*
X4988506Y86862040D01*
X5807022Y86523001D01*
X5807022Y81396855D01*
X5786001Y81401037D01*
X5665158Y81377000D01*
X5417537Y81377000D01*
X5310137Y81537737D01*
X5069661Y81698418D01*
X4786000Y81754842D01*
X2754000Y81754842D01*
X2470339Y81698418D01*
X2229863Y81537737D01*
X2069182Y81297261D01*
X2012758Y81013600D01*
X2012757Y79286400D01*
X2069182Y79002739D01*
X2229863Y78762262D01*
X2399005Y78649246D01*
X2119287Y78230621D01*
X2078228Y78024199D01*
X2022078Y77986681D01*
X2022077Y77986680D01*
X1919629Y77918227D01*
X1851176Y77815780D01*
X871822Y76836425D01*
X769372Y76767970D01*
X735000Y76716527D01*
X735000Y158265001D01*
X57265000Y158265000D01*
X57264999Y735000D01*
X52987022Y735000D01*
X52987022Y11093000D01*
X53872978Y11093001D01*
X54691494Y11432040D01*
X55317960Y12058506D01*
X55657000Y12877022D01*
X55657000Y13762978D01*
X55317960Y14581494D01*
X54691494Y15207960D01*
X53872978Y15547000D01*
X52987022Y15547000D01*
X52987022Y37593000D01*
X53872977Y37593000D01*
X54691494Y37932040D01*
X55317960Y38558506D01*
X55656999Y39377022D01*
X55657000Y40262978D01*
X55317960Y41081495D01*
X54691494Y41707960D01*
X53872978Y42047000D01*
X52987021Y42047000D01*
X52168506Y41707960D01*
X51542040Y41081494D01*
X51202999Y40262978D01*
X51203000Y39377022D01*
X51542040Y38558506D01*
X52168505Y37932040D01*
X52987022Y37593000D01*
X52987022Y15547000D01*
X52168505Y15207960D01*
X51542039Y14581494D01*
X51203000Y13762978D01*
X51203000Y12877022D01*
X51542039Y12058506D01*
X52168505Y11432040D01*
X52987022Y11093000D01*
X52987022Y735000D01*
X735000Y735000D01*
X735000Y32012836D01*
X769373Y31961393D01*
X769373Y31961393D01*
G37*
X769373Y31961393D02*
X871821Y31892940D01*
X1796930Y30967831D01*
X1865382Y30865384D01*
X1967830Y30796931D01*
X1967832Y30796929D01*
X2119288Y30695730D01*
X2250000Y30608391D01*
X2271250Y30594192D01*
X2325495Y30583402D01*
X2629152Y30523000D01*
X2629157Y30523000D01*
X2750000Y30498963D01*
X2870843Y30523000D01*
X4079208Y30523000D01*
X4200051Y30498963D01*
X4320894Y30523000D01*
X4320897Y30523000D01*
X4528477Y30564290D01*
X4587118Y30540000D01*
X4441669Y30479753D01*
X4040247Y30078331D01*
X3823000Y29553848D01*
X3823000Y28986152D01*
X4040247Y28461669D01*
X4441669Y28060247D01*
X4966152Y27843000D01*
X5533848Y27843000D01*
X6058331Y28060247D01*
X6459753Y28461669D01*
X6677000Y28986152D01*
X6676999Y29553848D01*
X6459753Y30078331D01*
X6058331Y30479753D01*
X5912881Y30540000D01*
X6058330Y30600247D01*
X6459752Y31001669D01*
X6677000Y31526152D01*
X6676999Y32093848D01*
X6459753Y32618331D01*
X6058330Y33019753D01*
X5912881Y33080000D01*
X6058330Y33140247D01*
X6459753Y33541669D01*
X6677000Y34066152D01*
X6677000Y34633848D01*
X6459753Y35158330D01*
X6058330Y35559753D01*
X5912881Y35620000D01*
X6058331Y35680247D01*
X6459753Y36081669D01*
X6676999Y36606152D01*
X6677000Y37173848D01*
X6459753Y37698332D01*
X6058331Y38099753D01*
X5912881Y38160000D01*
X6058331Y38220247D01*
X6459753Y38621669D01*
X6676999Y39146152D01*
X6676999Y39713848D01*
X6459753Y40238331D01*
X6058331Y40639753D01*
X5912881Y40700000D01*
X6016692Y40743000D01*
X9849152Y40743001D01*
X9969999Y40718963D01*
X10448750Y40814192D01*
X10752168Y41016929D01*
X10752169Y41016931D01*
X10854617Y41085384D01*
X10923069Y41187831D01*
X18042190Y48306950D01*
X18144636Y48375403D01*
X18273000Y48567512D01*
X18273000Y45758239D01*
X17967834Y45453073D01*
X17967831Y45453071D01*
X7467833Y34953072D01*
X7365383Y34884617D01*
X7094192Y34478752D01*
X7022999Y34120847D01*
X7022999Y34120843D01*
X6998963Y34000000D01*
X7023000Y33879157D01*
X7023000Y16548291D01*
X6617701Y16142992D01*
X6676999Y16286152D01*
X6676999Y16853848D01*
X6459753Y17378331D01*
X6058331Y17779753D01*
X5912881Y17840000D01*
X6058331Y17900247D01*
X6459753Y18301668D01*
X6677000Y18826152D01*
X6676999Y19393848D01*
X6459753Y19918331D01*
X6058330Y20319753D01*
X5912881Y20380000D01*
X6058330Y20440247D01*
X6459753Y20841670D01*
X6677000Y21366152D01*
X6677000Y21933848D01*
X6459753Y22458331D01*
X6058330Y22859753D01*
X5912881Y22920001D01*
X6058330Y22980247D01*
X6459753Y23381669D01*
X6676999Y23906152D01*
X6677000Y24473848D01*
X6459752Y24998331D01*
X6058330Y25399753D01*
X5533848Y25617000D01*
X4966152Y25617000D01*
X4483307Y25417000D01*
X4380893Y25417000D01*
X4260051Y25441037D01*
X4139208Y25417000D01*
X4139204Y25417000D01*
X3781299Y25345808D01*
X3563808Y25200485D01*
X3477882Y25143071D01*
X3477881Y25143070D01*
X3375434Y25074617D01*
X3306981Y24972170D01*
X2376051Y24041240D01*
X2273601Y23972785D01*
X2002410Y23566920D01*
X1931219Y23209015D01*
X1931219Y23209011D01*
X1907181Y23088168D01*
X1931218Y22967325D01*
X1931219Y11462624D01*
X1907182Y11341781D01*
X1931218Y11220938D01*
X1931219Y11220935D01*
X2002411Y10863029D01*
X2273601Y10457164D01*
X2376050Y10388711D01*
X2431218Y10333542D01*
X2431218Y9698916D01*
X2732150Y8972404D01*
X3288198Y8416355D01*
X4014712Y8115422D01*
X4801084Y8115422D01*
X5527596Y8416354D01*
X6083645Y8972403D01*
X6384578Y9698916D01*
X6384578Y10485288D01*
X6083645Y11211802D01*
X5527596Y11767851D01*
X4801084Y12068782D01*
X4385219Y12068782D01*
X4385219Y12876697D01*
X4441669Y12820247D01*
X4966152Y12602999D01*
X5533847Y12603000D01*
X6016693Y12803000D01*
X6119105Y12803000D01*
X6239949Y12778964D01*
X6360792Y12803000D01*
X6360795Y12803000D01*
X6718699Y12874193D01*
X7124565Y13145383D01*
X7193020Y13247833D01*
X7343428Y13398240D01*
X7365383Y13365383D01*
X7467830Y13296931D01*
X13046930Y7717831D01*
X13115383Y7615384D01*
X13217830Y7546931D01*
X13217832Y7546929D01*
X13521249Y7344192D01*
X14000000Y7248963D01*
X14120847Y7273001D01*
X30553911Y7273000D01*
X30565182Y7216339D01*
X30725863Y6975863D01*
X30966339Y6815182D01*
X31249999Y6758758D01*
X33249999Y6758758D01*
X33533660Y6815182D01*
X33774137Y6975863D01*
X33934817Y7216339D01*
X33946089Y7273000D01*
X43411758Y7273001D01*
X44922999Y5761761D01*
X44923000Y5102772D01*
X45227025Y4368790D01*
X45788789Y3807025D01*
X46522772Y3503000D01*
X47317228Y3503000D01*
X48051210Y3807025D01*
X48612975Y4368790D01*
X48916999Y5102772D01*
X48916999Y5897228D01*
X48612975Y6631210D01*
X48051210Y7192975D01*
X47317228Y7497000D01*
X46658239Y7497001D01*
X44873069Y9282170D01*
X44804617Y9384617D01*
X44398752Y9655808D01*
X44040847Y9727000D01*
X44040843Y9727000D01*
X43919999Y9751037D01*
X43799157Y9727000D01*
X33946089Y9727000D01*
X33934818Y9783661D01*
X33774137Y10024137D01*
X33533661Y10184818D01*
X33487021Y10194095D01*
X33487021Y11093001D01*
X34372977Y11093000D01*
X35191494Y11432040D01*
X35817960Y12058506D01*
X36156999Y12877022D01*
X36156999Y13762978D01*
X35817960Y14581494D01*
X35191494Y15207960D01*
X34372977Y15547000D01*
X33487021Y15547000D01*
X32668506Y15207960D01*
X32042040Y14581494D01*
X31703000Y13762978D01*
X31703000Y12877022D01*
X32042040Y12058506D01*
X32668506Y11432040D01*
X33487021Y11093001D01*
X33487021Y10194095D01*
X33249999Y10241242D01*
X31250000Y10241242D01*
X30966339Y10184818D01*
X30725862Y10024137D01*
X30565181Y9783661D01*
X30553911Y9727000D01*
X14508239Y9727000D01*
X9477000Y14758240D01*
X9476999Y15919207D01*
X9501037Y16040050D01*
X9477000Y16160893D01*
X9476999Y33491761D01*
X19703071Y43717831D01*
X19703072Y43717834D01*
X20282166Y44296928D01*
X20384616Y44365383D01*
X20655807Y44771248D01*
X20727000Y45129153D01*
X20727000Y45129156D01*
X20751036Y45249999D01*
X20727000Y45370842D01*
X20727000Y64567495D01*
X20794528Y64635023D01*
X21027000Y65196261D01*
X21027000Y65803739D01*
X20845584Y66241715D01*
X22376869Y67773000D01*
X37491759Y67773001D01*
X38459799Y66804961D01*
X38804960Y66459800D01*
X38918801Y66412645D01*
X39021250Y66344192D01*
X39142093Y66320155D01*
X39255935Y66273000D01*
X39379157Y66273000D01*
X39499999Y66248964D01*
X39620843Y66273000D01*
X39744065Y66273000D01*
X39857907Y66320155D01*
X39978750Y66344192D01*
X40081198Y66412645D01*
X40195039Y66459800D01*
X40282168Y66546929D01*
X40384617Y66615383D01*
X40453070Y66717832D01*
X40540199Y66804961D01*
X40587355Y66918802D01*
X40655808Y67021250D01*
X40679845Y67142092D01*
X40727000Y67255935D01*
X40727000Y67379157D01*
X40751036Y67500000D01*
X40726999Y67620843D01*
X40727000Y67744065D01*
X40679845Y67857907D01*
X40655808Y67978750D01*
X40587355Y68081198D01*
X40540199Y68195040D01*
X38953070Y69782169D01*
X38884616Y69884617D01*
X38717831Y69996060D01*
X38478752Y70155808D01*
X38305534Y70190263D01*
X38120846Y70227000D01*
X38120844Y70227000D01*
X38000000Y70251037D01*
X37879157Y70227000D01*
X32766557Y70227001D01*
X32766557Y91904127D01*
X33652513Y91904128D01*
X34471028Y92243167D01*
X35097495Y92869633D01*
X35436535Y93688150D01*
X35436535Y94574105D01*
X35373820Y94725512D01*
X35373820Y120481000D01*
X35966180Y120481000D01*
X36513450Y120707688D01*
X36932312Y121126549D01*
X36939999Y121145107D01*
X36947686Y121126549D01*
X37366549Y120707687D01*
X37913820Y120481000D01*
X38506180Y120481000D01*
X39053451Y120707687D01*
X39472313Y121126549D01*
X39480000Y121145107D01*
X39487687Y121126549D01*
X39906548Y120707687D01*
X40453820Y120481000D01*
X41046180Y120481000D01*
X41593451Y120707687D01*
X42012313Y121126549D01*
X42020000Y121145107D01*
X42027687Y121126549D01*
X42446549Y120707688D01*
X42993820Y120481000D01*
X43586180Y120481000D01*
X44133450Y120707687D01*
X44552313Y121126549D01*
X44560000Y121145107D01*
X44567687Y121126549D01*
X44986548Y120707688D01*
X45533819Y120481000D01*
X46126180Y120481000D01*
X46673451Y120707688D01*
X47092312Y121126549D01*
X47099999Y121145107D01*
X47107686Y121126549D01*
X47526549Y120707687D01*
X48073820Y120481000D01*
X48666179Y120481000D01*
X49213451Y120707687D01*
X49632313Y121126549D01*
X49640000Y121145107D01*
X49647687Y121126549D01*
X50066548Y120707687D01*
X50613819Y120481000D01*
X51206180Y120481000D01*
X51753451Y120707687D01*
X52172312Y121126549D01*
X52399000Y121673820D01*
X52399000Y122266180D01*
X52172312Y122813451D01*
X51753451Y123232313D01*
X51206180Y123459000D01*
X50613819Y123459000D01*
X50066548Y123232313D01*
X49647687Y122813451D01*
X49640000Y122794893D01*
X49632313Y122813451D01*
X49213450Y123232313D01*
X48666179Y123459000D01*
X48073820Y123459000D01*
X47526549Y123232313D01*
X47107687Y122813451D01*
X47099999Y122794894D01*
X47092312Y122813452D01*
X46673451Y123232313D01*
X46126180Y123459000D01*
X45533819Y123459000D01*
X44986548Y123232313D01*
X44567687Y122813452D01*
X44560000Y122794894D01*
X44552313Y122813452D01*
X44133451Y123232313D01*
X43586180Y123459000D01*
X42993820Y123459000D01*
X42446549Y123232313D01*
X42027686Y122813451D01*
X42019999Y122794893D01*
X42012312Y122813451D01*
X41593451Y123232313D01*
X41046180Y123459000D01*
X40453820Y123459000D01*
X39906549Y123232313D01*
X39487687Y122813451D01*
X39480000Y122794893D01*
X39472313Y122813451D01*
X39053450Y123232313D01*
X38506180Y123459000D01*
X37913820Y123459000D01*
X37366549Y123232313D01*
X36947687Y122813451D01*
X36940000Y122794893D01*
X36932313Y122813451D01*
X36513450Y123232313D01*
X35966180Y123459000D01*
X35373820Y123459000D01*
X34826548Y123232313D01*
X34407686Y122813452D01*
X34181000Y122266180D01*
X34180999Y121673820D01*
X34407686Y121126549D01*
X34826549Y120707687D01*
X35373820Y120481000D01*
X35373820Y94725512D01*
X35097495Y95392621D01*
X34471028Y96019088D01*
X33652513Y96358127D01*
X32766557Y96358128D01*
X31948041Y96019087D01*
X31321575Y95392621D01*
X30982535Y94574106D01*
X30982535Y93688149D01*
X31321574Y92869633D01*
X31948040Y92243167D01*
X32766557Y91904127D01*
X32766557Y70227001D01*
X25827021Y70227000D01*
X25827021Y74113000D01*
X26712978Y74113000D01*
X27531493Y74452040D01*
X28157959Y75078506D01*
X28497000Y75897022D01*
X28496999Y76782978D01*
X28157959Y77601494D01*
X27531494Y78227960D01*
X26712977Y78567000D01*
X25827022Y78567000D01*
X25008506Y78227960D01*
X24382039Y77601494D01*
X24043000Y76782978D01*
X24042999Y75897022D01*
X24382040Y75078506D01*
X25008506Y74452041D01*
X25827021Y74113000D01*
X25827021Y70227000D01*
X21989472Y70227000D01*
X21868630Y70251037D01*
X21747787Y70227001D01*
X21747783Y70227000D01*
X21389878Y70155808D01*
X20984012Y69884617D01*
X20915559Y69782170D01*
X18717831Y67584441D01*
X18615383Y67515987D01*
X18487020Y67323880D01*
X18487020Y80251781D01*
X19908231Y81672990D01*
X21389899Y81672991D01*
X21510746Y81648953D01*
X21989497Y81744182D01*
X21989498Y81744183D01*
X21989498Y81744183D01*
X22098982Y81817337D01*
X22292914Y81946919D01*
X22292917Y81946921D01*
X22395364Y82015374D01*
X22463816Y82117821D01*
X23230181Y82884184D01*
X23332629Y82952638D01*
X23401086Y83055091D01*
X26232179Y85886184D01*
X26334628Y85954637D01*
X26605819Y86360502D01*
X26677010Y86718407D01*
X26677010Y86718410D01*
X26701048Y86839253D01*
X26677010Y86960096D01*
X26677011Y90539903D01*
X26701047Y90660746D01*
X26677011Y90781589D01*
X26677010Y90781593D01*
X26605819Y91139498D01*
X26334628Y91545363D01*
X26232178Y91613818D01*
X24892923Y92953072D01*
X24892921Y92953074D01*
X20807021Y97038973D01*
X20807021Y113523000D01*
X21692977Y113523000D01*
X22511494Y113862040D01*
X23137959Y114488506D01*
X23476999Y115307022D01*
X23477000Y116192978D01*
X23137959Y117011494D01*
X22511493Y117637960D01*
X21692978Y117977000D01*
X20807021Y117977000D01*
X19988506Y117637960D01*
X19362040Y117011494D01*
X19023000Y116192978D01*
X19023000Y115307022D01*
X19362040Y114488507D01*
X19988506Y113862040D01*
X20807021Y113523000D01*
X20807021Y97038973D01*
X14392924Y103453072D01*
X14392922Y103453073D01*
X14327009Y103518985D01*
X14327010Y117341771D01*
X21008239Y124023000D01*
X40379152Y124023001D01*
X40500000Y123998963D01*
X40978750Y124094192D01*
X41282167Y124296929D01*
X41282169Y124296931D01*
X41384617Y124365384D01*
X41453069Y124467831D01*
X42508240Y125523000D01*
X47629152Y125523001D01*
X47750000Y125498963D01*
X48228750Y125594192D01*
X48532168Y125796929D01*
X48532169Y125796931D01*
X48634617Y125865384D01*
X48703070Y125967832D01*
X50092168Y127356930D01*
X50194616Y127425383D01*
X50465807Y127831248D01*
X50537000Y128189153D01*
X50537000Y128189156D01*
X50561036Y128309999D01*
X50537000Y128430842D01*
X50536999Y129441236D01*
X50572312Y129476549D01*
X50798999Y130023820D01*
X50798999Y130616180D01*
X50572312Y131163451D01*
X50153451Y131582313D01*
X49606180Y131809000D01*
X49013819Y131809000D01*
X48466548Y131582313D01*
X48047687Y131163451D01*
X48040000Y131144893D01*
X48032313Y131163451D01*
X47613451Y131582313D01*
X47066180Y131809000D01*
X46473820Y131809000D01*
X45926549Y131582313D01*
X45507687Y131163451D01*
X45281000Y130616180D01*
X45281000Y130023820D01*
X45507687Y129476549D01*
X45926549Y129057687D01*
X46473820Y128831000D01*
X47066180Y128831000D01*
X47613451Y129057687D01*
X48032313Y129476549D01*
X48040000Y129495107D01*
X48047687Y129476549D01*
X48082999Y129441236D01*
X48082999Y128818240D01*
X47241761Y127977000D01*
X42120842Y127977001D01*
X41999998Y128001037D01*
X41879154Y127977000D01*
X41879153Y127977001D01*
X41521247Y127905808D01*
X41217830Y127703071D01*
X41217830Y127703070D01*
X41115383Y127634617D01*
X41046930Y127532170D01*
X39991761Y126477000D01*
X38935478Y126477000D01*
X39261494Y126612040D01*
X39887959Y127238506D01*
X40226999Y128057022D01*
X40227000Y128942978D01*
X39887959Y129761494D01*
X39261494Y130387960D01*
X38442978Y130727000D01*
X37557021Y130727000D01*
X36738506Y130387960D01*
X36112040Y129761494D01*
X35772999Y128942978D01*
X35772999Y128057022D01*
X36112040Y127238506D01*
X36738506Y126612040D01*
X37064521Y126477000D01*
X33185478Y126477000D01*
X33511494Y126612040D01*
X34137959Y127238506D01*
X34476999Y128057022D01*
X34477000Y128942978D01*
X34137959Y129761494D01*
X33511494Y130387960D01*
X32692978Y130727000D01*
X31807021Y130727000D01*
X30988506Y130387960D01*
X30362040Y129761494D01*
X30022999Y128942978D01*
X30022999Y128057022D01*
X30362040Y127238506D01*
X30988506Y126612040D01*
X31314521Y126477000D01*
X20620842Y126477001D01*
X20499998Y126501037D01*
X20379153Y126477000D01*
X20379153Y126477000D01*
X20021248Y126405808D01*
X19905807Y126328673D01*
X19717830Y126203071D01*
X19717829Y126203070D01*
X19615382Y126134617D01*
X19546930Y126032170D01*
X12727000Y119212239D01*
X12726999Y127639157D01*
X12751037Y127760000D01*
X12726999Y127880843D01*
X12727000Y127880847D01*
X12655808Y128238752D01*
X12384617Y128644617D01*
X12282167Y128713073D01*
X8558999Y132436240D01*
X8558999Y132486180D01*
X8332312Y133033451D01*
X7913450Y133452313D01*
X7894892Y133460000D01*
X7913450Y133467687D01*
X8332313Y133886549D01*
X8559000Y134433820D01*
X8558999Y135026180D01*
X8332313Y135573451D01*
X7913451Y135992313D01*
X7366179Y136219000D01*
X6773820Y136219000D01*
X6226549Y135992313D01*
X5807686Y135573451D01*
X5580999Y135026180D01*
X5581000Y134433820D01*
X5807687Y133886549D01*
X6226549Y133467687D01*
X6245106Y133460000D01*
X6226548Y133452313D01*
X5807686Y133033451D01*
X5580999Y132486180D01*
X5580999Y131893820D01*
X5807686Y131346549D01*
X6226548Y130927687D01*
X6773819Y130701000D01*
X6823759Y130701000D01*
X10272999Y127251761D01*
X10272999Y102468845D01*
X10248963Y102348001D01*
X10272999Y102227159D01*
X10272999Y102227155D01*
X10344191Y101869251D01*
X10615382Y101463385D01*
X10717830Y101394932D01*
X21135762Y90977000D01*
X20807021Y90977000D01*
X19988506Y90637960D01*
X19362040Y90011494D01*
X19023000Y89192978D01*
X19023000Y88307022D01*
X19362040Y87488506D01*
X19988506Y86862041D01*
X20807021Y86523000D01*
X21135762Y86523000D01*
X20339762Y85727000D01*
X18946734Y85727000D01*
X19001037Y86000000D01*
X19001037Y86000000D01*
X18905808Y86478750D01*
X18787000Y86656560D01*
X18787000Y89691236D01*
X18822313Y89726548D01*
X19048999Y90273820D01*
X19049000Y90866180D01*
X18822313Y91413451D01*
X18403450Y91832313D01*
X17856179Y92059000D01*
X17263820Y92059000D01*
X16716549Y91832312D01*
X16297687Y91413451D01*
X16289999Y91394893D01*
X16282312Y91413451D01*
X15863451Y91832313D01*
X15316180Y92059000D01*
X14723819Y92059000D01*
X14176548Y91832313D01*
X13757687Y91413451D01*
X13530999Y90866180D01*
X13530999Y90273820D01*
X13757687Y89726549D01*
X14176548Y89307687D01*
X14723819Y89081000D01*
X15316180Y89081000D01*
X15863451Y89307687D01*
X16282312Y89726549D01*
X16289999Y89745107D01*
X16297686Y89726549D01*
X16332999Y89691236D01*
X16333000Y86318240D01*
X13277832Y83263071D01*
X13175382Y83194617D01*
X12904192Y82788753D01*
X12832999Y82430847D01*
X12832999Y82430843D01*
X12808963Y82310000D01*
X12833000Y82189157D01*
X12832999Y66699732D01*
X12475806Y66938402D01*
X11880000Y67056915D01*
X11284194Y66938402D01*
X10967809Y66727000D01*
X10370847Y66727000D01*
X10250000Y66751038D01*
X10129153Y66727000D01*
X9682504Y66727000D01*
X9614976Y66794528D01*
X9053739Y67027000D01*
X8446261Y67027000D01*
X7885024Y66794528D01*
X7477000Y66386504D01*
X7476999Y79177761D01*
X10722170Y82422930D01*
X10824616Y82491383D01*
X11095807Y82897248D01*
X11167000Y83255153D01*
X11167000Y83255156D01*
X11191036Y83375999D01*
X11167000Y83496842D01*
X11167000Y89691236D01*
X11202313Y89726549D01*
X11429000Y90273820D01*
X11428999Y90866180D01*
X11202313Y91413451D01*
X10783451Y91832313D01*
X10236180Y92059000D01*
X10186239Y92059000D01*
X5807022Y96438217D01*
X5807022Y113523000D01*
X6692978Y113523000D01*
X7511493Y113862040D01*
X8137960Y114488507D01*
X8477000Y115307022D01*
X8477000Y116192978D01*
X8137960Y117011495D01*
X7511494Y117637960D01*
X6692978Y117977000D01*
X5807022Y117977000D01*
X4988506Y117637960D01*
X4362040Y117011494D01*
X4023000Y116192978D01*
X4023000Y115307022D01*
X4362040Y114488506D01*
X4988505Y113862040D01*
X5807022Y113523000D01*
X5807022Y96438217D01*
X3477000Y98768240D01*
X3477000Y127123547D01*
X3988506Y126612040D01*
X4807021Y126273000D01*
X5692977Y126273000D01*
X6511494Y126612040D01*
X7137959Y127238506D01*
X7476999Y128057022D01*
X7476999Y128942978D01*
X7137959Y129761494D01*
X6511493Y130387960D01*
X5692977Y130727000D01*
X4807021Y130727000D01*
X3988506Y130387960D01*
X3477000Y129876454D01*
X3477000Y136241761D01*
X5818240Y138583000D01*
X6191236Y138583000D01*
X6226549Y138547687D01*
X6773820Y138321000D01*
X7366179Y138321000D01*
X7913450Y138547688D01*
X7948764Y138583001D01*
X33879152Y138583000D01*
X34570846Y138583000D01*
X34570851Y138583001D01*
X40463000Y138583000D01*
X40463000Y131198764D01*
X40427687Y131163451D01*
X40201000Y130616180D01*
X40201000Y130023821D01*
X40427686Y129476549D01*
X40846549Y129057687D01*
X41393820Y128831000D01*
X41986179Y128831000D01*
X42533451Y129057687D01*
X42952313Y129476549D01*
X43179000Y130023821D01*
X43179000Y130616180D01*
X42952313Y131163451D01*
X42917000Y131198764D01*
X42917000Y138583000D01*
X49931760Y138583000D01*
X54296929Y134217832D01*
X54582535Y133932226D01*
X54582535Y130066918D01*
X54261493Y130387960D01*
X53442978Y130727000D01*
X52557022Y130727000D01*
X51738505Y130387960D01*
X51112039Y129761494D01*
X50773000Y128942978D01*
X50773000Y128057022D01*
X51112039Y127238506D01*
X51738505Y126612040D01*
X52557022Y126273000D01*
X53442978Y126273000D01*
X54261493Y126612040D01*
X54582535Y126933082D01*
X54582535Y116978161D01*
X38189831Y100585455D01*
X38087382Y100517001D01*
X37816191Y100111136D01*
X37744999Y99753231D01*
X37744999Y99753227D01*
X37720961Y99632384D01*
X37744999Y99511541D01*
X37744999Y99489072D01*
X37366549Y99332313D01*
X36947687Y98913451D01*
X36721000Y98366180D01*
X36721000Y97773820D01*
X36947687Y97226549D01*
X37366549Y96807687D01*
X37913820Y96581000D01*
X38506180Y96581000D01*
X39053451Y96807687D01*
X39472313Y97226549D01*
X39480000Y97245107D01*
X39487687Y97226549D01*
X39906548Y96807687D01*
X40453819Y96581000D01*
X41046180Y96581000D01*
X41593451Y96807687D01*
X42012312Y97226549D01*
X42020000Y97245107D01*
X42027687Y97226549D01*
X42063000Y97191236D01*
X42062999Y97113212D01*
X42038963Y96992369D01*
X42062999Y96871526D01*
X42062999Y96871523D01*
X42134192Y96513618D01*
X42405383Y96107753D01*
X42507831Y96039299D01*
X43329299Y95217832D01*
X43397752Y95115384D01*
X43500200Y95046931D01*
X43500201Y95046930D01*
X43620847Y94966317D01*
X43794192Y94850492D01*
X43803620Y94844192D01*
X44282369Y94748963D01*
X44403216Y94773001D01*
X46741759Y94773000D01*
X46922989Y94591771D01*
X46922990Y61177018D01*
X45115895Y61177018D01*
X45195039Y61209800D01*
X45282167Y61296928D01*
X45384617Y61365383D01*
X45453072Y61467833D01*
X45540200Y61554961D01*
X45587353Y61668798D01*
X45655808Y61771248D01*
X45679846Y61892096D01*
X45727000Y62005935D01*
X45727000Y62379158D01*
X45751036Y62500000D01*
X45727000Y62620843D01*
X45727000Y62620847D01*
X45655807Y62978752D01*
X45384617Y63384617D01*
X45282166Y63453073D01*
X44453070Y64282170D01*
X44384617Y64384617D01*
X44282170Y64453071D01*
X44282168Y64453072D01*
X44133450Y64552441D01*
X43978752Y64655808D01*
X43620847Y64727000D01*
X43620842Y64727000D01*
X43499999Y64751037D01*
X43379157Y64727000D01*
X38120841Y64727000D01*
X37999998Y64751037D01*
X37879156Y64727000D01*
X37879153Y64727000D01*
X37521247Y64655808D01*
X37115382Y64384617D01*
X37046929Y64282169D01*
X31201761Y58437001D01*
X28876692Y58437000D01*
X28393848Y58637000D01*
X27826152Y58637000D01*
X27301669Y58419754D01*
X26900246Y58018331D01*
X26683000Y57493848D01*
X26683000Y56926152D01*
X26900247Y56401669D01*
X27301669Y56000247D01*
X27447118Y55940000D01*
X27301669Y55879753D01*
X26900247Y55478331D01*
X26683000Y54953848D01*
X26683000Y54386152D01*
X26900246Y53861669D01*
X27301669Y53460247D01*
X27447118Y53400000D01*
X27301669Y53339753D01*
X26900247Y52938331D01*
X26683000Y52413848D01*
X26683000Y51846152D01*
X26900247Y51321669D01*
X27301669Y50920247D01*
X27447119Y50860000D01*
X27301669Y50799753D01*
X26900247Y50398331D01*
X26683000Y49873848D01*
X26683000Y49306153D01*
X26900247Y48781669D01*
X27301669Y48380247D01*
X27447119Y48320000D01*
X27301669Y48259753D01*
X26900246Y47858331D01*
X26683000Y47333848D01*
X26683000Y46766152D01*
X26900247Y46241669D01*
X27301669Y45840248D01*
X27826152Y45623000D01*
X28393847Y45623000D01*
X28876692Y45823000D01*
X28979105Y45823000D01*
X29099949Y45798963D01*
X29220792Y45823000D01*
X29220796Y45823000D01*
X29578700Y45894192D01*
X29984565Y46165384D01*
X30053019Y46267831D01*
X31282168Y47496981D01*
X31384616Y47565434D01*
X31453070Y47667881D01*
X31453071Y47667882D01*
X31481211Y47709997D01*
X31948040Y47243167D01*
X32766557Y46904127D01*
X33652512Y46904127D01*
X34471028Y47243167D01*
X35097495Y47869633D01*
X35436534Y48688149D01*
X35436535Y49574105D01*
X35097495Y50392622D01*
X34471029Y51019087D01*
X33652513Y51358127D01*
X33323772Y51358127D01*
X38215488Y56249842D01*
X38215488Y52599203D01*
X37956986Y52212330D01*
X37865488Y51752334D01*
X37865487Y51441696D01*
X37956987Y50981700D01*
X38305535Y50460063D01*
X38827173Y50111514D01*
X39442488Y49989120D01*
X40057802Y50111514D01*
X40579441Y50460062D01*
X40712488Y50659181D01*
X40755487Y50594827D01*
X40755488Y47490728D01*
X38511771Y45247011D01*
X31878098Y45247011D01*
X31757254Y45271048D01*
X31636409Y45247011D01*
X31636409Y45247011D01*
X31278504Y45175819D01*
X30988506Y44982048D01*
X30975086Y44973082D01*
X30975085Y44973081D01*
X30872638Y44904628D01*
X30804185Y44802182D01*
X29199006Y43197000D01*
X28876692Y43197000D01*
X28393847Y43397000D01*
X27826152Y43397001D01*
X27301669Y43179753D01*
X26900247Y42778331D01*
X26683000Y42253849D01*
X26683000Y41686152D01*
X26900246Y41161669D01*
X27301669Y40760247D01*
X27447119Y40700000D01*
X27301669Y40639753D01*
X26900247Y40238331D01*
X26683000Y39713848D01*
X26683000Y39146153D01*
X26900247Y38621669D01*
X27301669Y38220247D01*
X27447119Y38160000D01*
X27301669Y38099753D01*
X26900247Y37698332D01*
X26683000Y37173848D01*
X26683000Y36606152D01*
X26900247Y36081669D01*
X27301669Y35680247D01*
X27447118Y35620000D01*
X27301669Y35559754D01*
X26900246Y35158331D01*
X26683000Y34633848D01*
X26683000Y34066152D01*
X26900247Y33541669D01*
X27301669Y33140247D01*
X27447118Y33080000D01*
X27301669Y33019753D01*
X26900247Y32618331D01*
X26683000Y32093848D01*
X26683000Y31526152D01*
X26900246Y31001669D01*
X27301669Y30600247D01*
X27447118Y30540000D01*
X27301669Y30479753D01*
X26900247Y30078331D01*
X26683000Y29553848D01*
X26683000Y28986152D01*
X26900247Y28461669D01*
X27301669Y28060247D01*
X27447119Y28000000D01*
X27301669Y27939753D01*
X26900247Y27538331D01*
X26683000Y27013848D01*
X26683000Y26446153D01*
X26900247Y25921669D01*
X27301669Y25520247D01*
X27447119Y25460000D01*
X27301669Y25399753D01*
X26900246Y24998331D01*
X26683000Y24473848D01*
X26683000Y23906152D01*
X26900247Y23381669D01*
X27301669Y22980248D01*
X27447118Y22920000D01*
X27301669Y22859753D01*
X26900247Y22458331D01*
X26683000Y21933848D01*
X26683000Y21366152D01*
X26900247Y20841670D01*
X27301669Y20440247D01*
X27447118Y20380000D01*
X27301669Y20319753D01*
X26900247Y19918331D01*
X26683000Y19393849D01*
X26683000Y18826152D01*
X26900246Y18301669D01*
X27301669Y17900247D01*
X27447119Y17840000D01*
X27301669Y17779753D01*
X26900247Y17378331D01*
X26683000Y16853848D01*
X26683000Y16286153D01*
X26900247Y15761669D01*
X27301669Y15360247D01*
X27447119Y15300000D01*
X27301669Y15239753D01*
X26900247Y14838332D01*
X26683000Y14313848D01*
X26683000Y13746152D01*
X26900247Y13221669D01*
X27301669Y12820247D01*
X27826152Y12603000D01*
X28393847Y12603000D01*
X28918331Y12820247D01*
X29319753Y13221669D01*
X29536999Y13746152D01*
X29537000Y14313848D01*
X29319753Y14838332D01*
X28918331Y15239753D01*
X28772881Y15300000D01*
X28918331Y15360247D01*
X29319753Y15761669D01*
X29536999Y16286152D01*
X29536999Y16853848D01*
X29319753Y17378331D01*
X28918331Y17779753D01*
X28772881Y17840000D01*
X28918331Y17900247D01*
X29319753Y18301668D01*
X29537000Y18826152D01*
X29536999Y19393848D01*
X29319753Y19918331D01*
X28918330Y20319753D01*
X28772881Y20380000D01*
X28918330Y20440247D01*
X29319753Y20841670D01*
X29537000Y21366152D01*
X29537000Y21933848D01*
X29319753Y22458331D01*
X28918330Y22859753D01*
X28772881Y22920001D01*
X28918330Y22980247D01*
X29319753Y23381669D01*
X29536999Y23906152D01*
X29537000Y24473848D01*
X29319753Y24998332D01*
X28918331Y25399753D01*
X28772881Y25460000D01*
X28918331Y25520247D01*
X29319753Y25921669D01*
X29536999Y26446152D01*
X29537000Y27013848D01*
X29319753Y27538331D01*
X28918331Y27939753D01*
X28772881Y28000000D01*
X28918331Y28060247D01*
X29319753Y28461669D01*
X29537000Y28986152D01*
X29536999Y29553848D01*
X29319753Y30078331D01*
X28918331Y30479753D01*
X28772881Y30540000D01*
X28876694Y30583001D01*
X33681760Y30583000D01*
X41182999Y23081761D01*
X41183000Y14768764D01*
X41147687Y14733451D01*
X40921000Y14186180D01*
X40921000Y13593820D01*
X41147687Y13046549D01*
X41566549Y12627687D01*
X42113820Y12401000D01*
X42706180Y12401000D01*
X43253451Y12627687D01*
X43672313Y13046549D01*
X43680000Y13065107D01*
X43687687Y13046549D01*
X44106548Y12627687D01*
X44653819Y12401000D01*
X45246180Y12401000D01*
X45793451Y12627687D01*
X46212312Y13046549D01*
X46219999Y13065107D01*
X46227686Y13046549D01*
X46646549Y12627687D01*
X47193820Y12401000D01*
X47786179Y12401000D01*
X48333450Y12627687D01*
X48752312Y13046549D01*
X48978999Y13593820D01*
X48979000Y13643761D01*
X49034166Y13698927D01*
X49136616Y13767382D01*
X49407806Y14173247D01*
X49478999Y14531152D01*
X49478999Y14531155D01*
X49503036Y14651998D01*
X49478999Y14772841D01*
X49478999Y39493760D01*
X56591706Y46606466D01*
X56694153Y46674919D01*
X56762606Y46777366D01*
X56762607Y46777367D01*
X56965344Y47080784D01*
X57036535Y47438689D01*
X57036535Y47438692D01*
X57060573Y47559535D01*
X57036535Y47680378D01*
X57036535Y115909236D01*
X57060573Y116030079D01*
X57036535Y116150922D01*
X57036535Y134319621D01*
X57060573Y134440464D01*
X57036535Y134561307D01*
X57036536Y134561311D01*
X56965344Y134919216D01*
X56694152Y135325081D01*
X56591702Y135393536D01*
X56032167Y135953071D01*
X52557022Y139428217D01*
X52557022Y153273000D01*
X53442978Y153273000D01*
X54261493Y153612040D01*
X54887960Y154238506D01*
X55227000Y155057022D01*
X55227000Y155942978D01*
X54887960Y156761494D01*
X54261493Y157387960D01*
X53442977Y157727000D01*
X52557022Y157727000D01*
X51738505Y157387960D01*
X51112039Y156761494D01*
X50773000Y155942978D01*
X50772999Y155057022D01*
X51112040Y154238507D01*
X51738506Y153612040D01*
X52557022Y153273000D01*
X52557022Y139428217D01*
X51393069Y140592170D01*
X51324617Y140694616D01*
X51206180Y140773755D01*
X50918752Y140965808D01*
X50905808Y140968383D01*
X50560847Y141037000D01*
X50560844Y141037000D01*
X50440001Y141061037D01*
X50319157Y141037000D01*
X41620842Y141037000D01*
X41499999Y141061037D01*
X41379157Y141037000D01*
X37557021Y141037000D01*
X37557022Y153273000D01*
X38442977Y153273000D01*
X39261494Y153612040D01*
X39887959Y154238506D01*
X40226999Y155057022D01*
X40227000Y155942978D01*
X39887959Y156761494D01*
X39261493Y157387960D01*
X38442978Y157727000D01*
X37557021Y157727000D01*
X36738506Y157387959D01*
X36112040Y156761494D01*
X35772999Y155942978D01*
X35773000Y155057022D01*
X36112039Y154238507D01*
X36738506Y153612040D01*
X37557022Y153273000D01*
X37557021Y141037000D01*
X31807021Y141037000D01*
X31807021Y141273000D01*
X32692978Y141273000D01*
X33511493Y141612040D01*
X34137959Y142238506D01*
X34477000Y143057022D01*
X34476999Y143942978D01*
X34137960Y144761494D01*
X33511494Y145387960D01*
X32692977Y145727000D01*
X31807022Y145727000D01*
X30988506Y145387960D01*
X30362039Y144761494D01*
X30023000Y143942978D01*
X30022999Y143057022D01*
X30362039Y142238506D01*
X30988506Y141612039D01*
X31807021Y141273000D01*
X31807021Y141037000D01*
X7948763Y141037000D01*
X7913450Y141072313D01*
X7366179Y141299000D01*
X6773820Y141299000D01*
X6226548Y141072313D01*
X6191235Y141037000D01*
X5430842Y141037000D01*
X5310000Y141061037D01*
X5189157Y141037000D01*
X5189153Y141037000D01*
X4831248Y140965808D01*
X4807022Y140949621D01*
X4807021Y141273000D01*
X5692978Y141273000D01*
X6511493Y141612040D01*
X7137959Y142238506D01*
X7477000Y143057022D01*
X7476999Y143942978D01*
X7137959Y144761494D01*
X6511494Y145387960D01*
X5692977Y145727000D01*
X4807022Y145727000D01*
X3988506Y145387960D01*
X3362040Y144761494D01*
X3023000Y143942978D01*
X3023000Y143057022D01*
X3362040Y142238506D01*
X3988505Y141612040D01*
X4807021Y141273000D01*
X4807022Y140949621D01*
X4654617Y140847787D01*
X4527832Y140763071D01*
X4527830Y140763070D01*
X4425382Y140694617D01*
X4356930Y140592170D01*
X1467833Y137703073D01*
X1365383Y137634618D01*
X1094192Y137228752D01*
X1023000Y136870847D01*
X1023000Y136870843D01*
X998963Y136750000D01*
X1023000Y136629158D01*
X1023000Y98380843D01*
X998963Y98259999D01*
X1023000Y98139156D01*
X1023000Y98139153D01*
X1094192Y97781248D01*
X1365383Y97375383D01*
X1467830Y97306930D01*
X8450999Y90323761D01*
X8451000Y90273820D01*
X8677687Y89726549D01*
X8713000Y89691236D01*
X8712999Y83884240D01*
X6156168Y81327407D01*
X5906847Y81377000D01*
X5906843Y81377000D01*
X5807022Y81396855D01*
X5807022Y86523001D01*
X6692978Y86523000D01*
X7511493Y86862041D01*
X8137960Y87488507D01*
X8477000Y88307022D01*
X8477000Y89192978D01*
X8137960Y90011493D01*
X7511493Y90637960D01*
X6692978Y90977000D01*
X5807022Y90977000D01*
X4988506Y90637960D01*
X4362040Y90011494D01*
X4023000Y89192978D01*
X4023000Y88307022D01*
X4362040Y87488506D01*
X4988506Y86862040D01*
X5807022Y86523001D01*
X5807022Y81396855D01*
X5786001Y81401037D01*
X5665158Y81377000D01*
X5417537Y81377000D01*
X5310137Y81537737D01*
X5069661Y81698418D01*
X4786000Y81754842D01*
X2754000Y81754842D01*
X2470339Y81698418D01*
X2229863Y81537737D01*
X2069182Y81297261D01*
X2012758Y81013600D01*
X2012757Y79286400D01*
X2069182Y79002739D01*
X2229863Y78762262D01*
X2399005Y78649246D01*
X2119287Y78230621D01*
X2078228Y78024199D01*
X2022078Y77986681D01*
X2022077Y77986680D01*
X1919629Y77918227D01*
X1851176Y77815780D01*
X871822Y76836425D01*
X769372Y76767970D01*
X735000Y76716527D01*
X735000Y158265001D01*
X57265000Y158265000D01*
X57264999Y735000D01*
X52987022Y735000D01*
X52987022Y11093000D01*
X53872978Y11093001D01*
X54691494Y11432040D01*
X55317960Y12058506D01*
X55657000Y12877022D01*
X55657000Y13762978D01*
X55317960Y14581494D01*
X54691494Y15207960D01*
X53872978Y15547000D01*
X52987022Y15547000D01*
X52987022Y37593000D01*
X53872977Y37593000D01*
X54691494Y37932040D01*
X55317960Y38558506D01*
X55656999Y39377022D01*
X55657000Y40262978D01*
X55317960Y41081495D01*
X54691494Y41707960D01*
X53872978Y42047000D01*
X52987021Y42047000D01*
X52168506Y41707960D01*
X51542040Y41081494D01*
X51202999Y40262978D01*
X51203000Y39377022D01*
X51542040Y38558506D01*
X52168505Y37932040D01*
X52987022Y37593000D01*
X52987022Y15547000D01*
X52168505Y15207960D01*
X51542039Y14581494D01*
X51203000Y13762978D01*
X51203000Y12877022D01*
X51542039Y12058506D01*
X52168505Y11432040D01*
X52987022Y11093000D01*
X52987022Y735000D01*
X735000Y735000D01*
X735000Y32012836D01*
X769373Y31961393D01*
G36*
X2996979Y73571689D02*
X3460943Y73479400D01*
X4079056Y73479400D01*
X4543020Y73571689D01*
X5022999Y73892400D01*
X5023000Y62958240D01*
X4467832Y62403072D01*
X4365382Y62334617D01*
X4094191Y61928752D01*
X4023000Y61570847D01*
X4023000Y61570843D01*
X3998963Y61450000D01*
X4022999Y61329157D01*
X4022999Y60969852D01*
X3865181Y60733662D01*
X3808757Y60450000D01*
X3808758Y59050000D01*
X3865181Y58766339D01*
X4025863Y58525863D01*
X4266339Y58365182D01*
X4367062Y58345147D01*
X4040246Y58018331D01*
X3823000Y57493848D01*
X3823000Y56926152D01*
X4040247Y56401669D01*
X4441669Y56000248D01*
X4587118Y55940000D01*
X4441669Y55879753D01*
X4040247Y55478331D01*
X3823000Y54953848D01*
X3823000Y54386152D01*
X4040246Y53861669D01*
X4441669Y53460247D01*
X4587118Y53400000D01*
X4441669Y53339753D01*
X4040247Y52938331D01*
X3823000Y52413849D01*
X3823000Y51846152D01*
X4040247Y51321669D01*
X4441669Y50920247D01*
X4587119Y50860000D01*
X4441669Y50799753D01*
X4040247Y50398331D01*
X3823000Y49873848D01*
X3823000Y49306153D01*
X4040247Y48781669D01*
X4441669Y48380247D01*
X4587119Y48320000D01*
X4441669Y48259753D01*
X4040246Y47858331D01*
X3823000Y47333848D01*
X3823000Y46766152D01*
X4040247Y46241669D01*
X4441669Y45840248D01*
X4587118Y45780000D01*
X4441669Y45719753D01*
X4040247Y45318331D01*
X3823000Y44793848D01*
X3823000Y44226152D01*
X4040247Y43701670D01*
X4441669Y43300247D01*
X4587118Y43240000D01*
X4441669Y43179753D01*
X4040247Y42778331D01*
X3823000Y42253849D01*
X3823000Y41686152D01*
X4040246Y41161669D01*
X4441669Y40760247D01*
X4587119Y40700000D01*
X4441669Y40639753D01*
X4040247Y40238331D01*
X3823000Y39713848D01*
X3823000Y39146153D01*
X4040247Y38621669D01*
X4441669Y38220247D01*
X4587119Y38160000D01*
X4441669Y38099753D01*
X4040247Y37698332D01*
X3823000Y37173848D01*
X3823000Y36606152D01*
X4040247Y36081669D01*
X4441669Y35680247D01*
X4587118Y35620000D01*
X4441669Y35559754D01*
X4040246Y35158331D01*
X3823000Y34633848D01*
X3823000Y34066152D01*
X4040247Y33541669D01*
X4441669Y33140247D01*
X4587118Y33080000D01*
X4483307Y33037000D01*
X4380894Y33037000D01*
X4260050Y33061037D01*
X4139208Y33037000D01*
X4139204Y33037000D01*
X3837565Y32977000D01*
X3258238Y32977000D01*
X2880990Y33354250D01*
X2880990Y73649190D01*
X2996979Y73571689D01*
X2996979Y73571689D01*
G37*
X2996979Y73571689D02*
X3460943Y73479400D01*
X4079056Y73479400D01*
X4543020Y73571689D01*
X5022999Y73892400D01*
X5023000Y62958240D01*
X4467832Y62403072D01*
X4365382Y62334617D01*
X4094191Y61928752D01*
X4023000Y61570847D01*
X4023000Y61570843D01*
X3998963Y61450000D01*
X4022999Y61329157D01*
X4022999Y60969852D01*
X3865181Y60733662D01*
X3808757Y60450000D01*
X3808758Y59050000D01*
X3865181Y58766339D01*
X4025863Y58525863D01*
X4266339Y58365182D01*
X4367062Y58345147D01*
X4040246Y58018331D01*
X3823000Y57493848D01*
X3823000Y56926152D01*
X4040247Y56401669D01*
X4441669Y56000248D01*
X4587118Y55940000D01*
X4441669Y55879753D01*
X4040247Y55478331D01*
X3823000Y54953848D01*
X3823000Y54386152D01*
X4040246Y53861669D01*
X4441669Y53460247D01*
X4587118Y53400000D01*
X4441669Y53339753D01*
X4040247Y52938331D01*
X3823000Y52413849D01*
X3823000Y51846152D01*
X4040247Y51321669D01*
X4441669Y50920247D01*
X4587119Y50860000D01*
X4441669Y50799753D01*
X4040247Y50398331D01*
X3823000Y49873848D01*
X3823000Y49306153D01*
X4040247Y48781669D01*
X4441669Y48380247D01*
X4587119Y48320000D01*
X4441669Y48259753D01*
X4040246Y47858331D01*
X3823000Y47333848D01*
X3823000Y46766152D01*
X4040247Y46241669D01*
X4441669Y45840248D01*
X4587118Y45780000D01*
X4441669Y45719753D01*
X4040247Y45318331D01*
X3823000Y44793848D01*
X3823000Y44226152D01*
X4040247Y43701670D01*
X4441669Y43300247D01*
X4587118Y43240000D01*
X4441669Y43179753D01*
X4040247Y42778331D01*
X3823000Y42253849D01*
X3823000Y41686152D01*
X4040246Y41161669D01*
X4441669Y40760247D01*
X4587119Y40700000D01*
X4441669Y40639753D01*
X4040247Y40238331D01*
X3823000Y39713848D01*
X3823000Y39146153D01*
X4040247Y38621669D01*
X4441669Y38220247D01*
X4587119Y38160000D01*
X4441669Y38099753D01*
X4040247Y37698332D01*
X3823000Y37173848D01*
X3823000Y36606152D01*
X4040247Y36081669D01*
X4441669Y35680247D01*
X4587118Y35620000D01*
X4441669Y35559754D01*
X4040246Y35158331D01*
X3823000Y34633848D01*
X3823000Y34066152D01*
X4040247Y33541669D01*
X4441669Y33140247D01*
X4587118Y33080000D01*
X4483307Y33037000D01*
X4380894Y33037000D01*
X4260050Y33061037D01*
X4139208Y33037000D01*
X4139204Y33037000D01*
X3837565Y32977000D01*
X3258238Y32977000D01*
X2880990Y33354250D01*
X2880990Y73649190D01*
X2996979Y73571689D01*
M02*
