M48
;DRILL file {KiCad (5.0.0-rc2-dev-493-gd776eaca8)} date Wed Jul  4 02:11:26 2018
;FORMAT={-:-/ absolute / metric / decimal}
FMAT,2
METRIC,TZ
T1C0.762
T2C0.800
T3C1.000
T4C1.001
T5C1.016
T6C1.524
T7C3.000
%
G90
G05
M71
T1
X9.94Y90.57
X12.48Y90.57
X15.02Y90.57
X17.56Y90.57
X41.69Y130.32
X44.23Y130.32
X46.77Y130.32
X49.31Y130.32
X7.07Y139.81
X7.07Y137.27
X7.07Y134.73
X7.07Y132.19
X39.87Y13.89
X42.41Y13.89
X44.95Y13.89
X47.49Y13.89
T2
X3.75Y70.
X8.5Y70.
X39.442Y56.192
X39.5Y67.5
X44.5Y62.25
X44.5Y54.5
X3.67Y65.5
X8.75Y65.5
X5.25Y59.75
X5.25Y57.21
X5.25Y54.67
X5.25Y52.13
X5.25Y49.59
X5.25Y47.05
X5.25Y44.51
X5.25Y41.97
X5.25Y39.43
X5.25Y36.89
X5.25Y34.35
X5.25Y31.81
X5.25Y29.27
X5.25Y26.73
X5.25Y24.19
X5.25Y21.65
X5.25Y19.11
X5.25Y16.57
X5.25Y14.03
X28.11Y59.75
X28.11Y57.21
X28.11Y54.67
X28.11Y52.13
X28.11Y49.59
X28.11Y47.05
X28.11Y44.51
X28.11Y41.97
X28.11Y39.43
X28.11Y36.89
X28.11Y34.35
X28.11Y31.81
X28.11Y29.27
X28.11Y26.73
X28.11Y24.19
X28.11Y21.65
X28.11Y19.11
X28.11Y16.57
X28.11Y14.03
X11.88Y65.5
X19.5Y65.5
T3
X36.902Y51.597
X39.442Y51.597
X41.982Y51.597
X44.522Y51.597
X47.062Y51.597
X49.602Y51.597
X35.67Y121.97
X35.67Y98.07
X38.21Y121.97
X38.21Y98.07
X40.75Y121.97
X40.75Y98.07
X43.29Y121.97
X43.29Y98.07
X45.83Y121.97
X45.83Y98.07
X48.37Y121.97
X50.91Y121.97
X32.25Y8.5
X32.25Y3.5
T4
X4.408Y10.092
X11.592Y2.908
T5
X3.77Y80.15
X3.77Y77.61
X3.77Y75.07
X3.77Y72.53
T6
X46.92Y5.5
X52.Y5.5
T7
X6.25Y115.75
X6.25Y88.75
X21.25Y115.75
X21.25Y88.75
X38.Y155.5
X38.Y128.5
X53.Y155.5
X53.Y128.5
X26.27Y76.34
X5.25Y143.5
X5.25Y128.5
X32.25Y143.5
X32.25Y128.5
X33.93Y39.82
X33.93Y13.32
X53.43Y39.82
X53.43Y13.32
X33.21Y94.131
X33.21Y49.131
X53.21Y94.131
X53.21Y49.131
T0
M30
